<?xml version="1.0" encoding="UTF-8"?>
<svg xmlns="http://www.w3.org/2000/svg" xmlns:xlink="http://www.w3.org/1999/xlink" width="366px" height="180px" viewBox="0 0 547 422" version="1.1">
<defs>
<filter id="alpha" filterUnits="objectBoundingBox" x="0%" y="0%" width="100%" height="100%">
  <feColorMatrix type="matrix" in="SourceGraphic" values="0 0 0 0 1 0 0 0 0 1 0 0 0 0 1 0 0 0 1 0"/>
</filter>
<mask id="mask0">
  <g filter="url(#alpha)">
<rect x="0" y="0" width="547" height="422" style="fill:rgb(0%,0%,0%);fill-opacity:0.101961;stroke:none;"/>
  </g>
</mask>
<clipPath id="clip1">
  <rect x="0" y="0" width="547" height="422"/>
</clipPath>
<g id="surface5" clip-path="url(#clip1)">
<path style=" stroke:none;fill-rule:nonzero;fill:rgb(0%,0%,0%);fill-opacity:1;" d="M 403.921875 60.003906 L 399.78125 44.792969 L 410.757812 40.152344 L 407.347656 58.089844 Z M 403.921875 60.003906 "/>
</g>
</defs>
<g id="surface1">
<path style=" stroke:none;fill-rule:nonzero;fill:rgb(24.705882%,23.921569%,33.72549%);fill-opacity:1;" d="M 546.753906 354.394531 C 546.753906 354.886719 546.355469 355.285156 545.863281 355.285156 L 0.890625 355.285156 C 0.398438 355.285156 0 354.886719 0 354.394531 C 0 354.152344 0.0898438 353.945312 0.238281 353.785156 L 67.375 353.785156 C 68.804688 353.785156 70.203125 353.6875 71.582031 353.5 L 545.863281 353.5 C 546.355469 353.5 546.753906 353.898438 546.753906 354.394531 Z M 546.753906 354.394531 "/>
<path style=" stroke:none;fill-rule:nonzero;fill:rgb(90.196078%,90.196078%,90.196078%);fill-opacity:1;" d="M 56.085938 206.15625 L 111.179688 206.15625 L 111.179688 342.230469 L 56.085938 342.230469 Z M 56.085938 206.15625 "/>
<path style=" stroke:none;fill-rule:nonzero;fill:rgb(90.196078%,90.196078%,90.196078%);fill-opacity:1;" d="M 85.21875 245.46875 C 85.21875 259.246094 74.066406 270.414062 60.3125 270.414062 C 46.558594 270.414062 35.40625 259.246094 35.40625 245.46875 C 35.40625 231.691406 46.558594 220.519531 60.3125 220.519531 C 74.066406 220.519531 85.21875 231.691406 85.21875 245.46875 Z M 85.21875 245.46875 "/>
<path style=" stroke:none;fill-rule:nonzero;fill:rgb(90.196078%,90.196078%,90.196078%);fill-opacity:1;" d="M 44.238281 245.617188 C 44.238281 249.460938 41.128906 252.574219 37.296875 252.574219 C 33.460938 252.574219 30.351562 249.460938 30.351562 245.617188 C 30.351562 241.777344 33.460938 238.664062 37.296875 238.664062 C 41.128906 238.664062 44.238281 241.777344 44.238281 245.617188 Z M 44.238281 245.617188 "/>
<path style=" stroke:none;fill-rule:nonzero;fill:rgb(90.196078%,90.196078%,90.196078%);fill-opacity:1;" d="M 128.988281 245.316406 C 128.988281 253.332031 122.5 259.832031 114.5 259.832031 C 106.496094 259.832031 100.007812 253.332031 100.007812 245.316406 C 100.007812 237.300781 106.496094 230.800781 114.5 230.800781 C 122.5 230.800781 128.988281 237.300781 128.988281 245.316406 Z M 128.988281 245.316406 "/>
<path style=" stroke:none;fill-rule:nonzero;fill:rgb(90.196078%,90.196078%,90.196078%);fill-opacity:1;" d="M 135.929688 245.316406 C 135.929688 249.15625 132.824219 252.269531 128.988281 252.269531 C 125.152344 252.269531 122.046875 249.15625 122.046875 245.316406 C 122.046875 241.476562 125.152344 238.363281 128.988281 238.363281 C 132.824219 238.363281 135.929688 241.476562 135.929688 245.316406 Z M 135.929688 245.316406 "/>
<path style=" stroke:none;fill-rule:nonzero;fill:rgb(90.196078%,90.196078%,90.196078%);fill-opacity:1;" d="M 91.253906 157.019531 C 91.253906 160.863281 88.144531 163.976562 84.3125 163.976562 C 80.476562 163.976562 77.367188 160.863281 77.367188 157.019531 C 77.367188 153.179688 80.476562 150.066406 84.3125 150.066406 C 88.144531 150.066406 91.253906 153.179688 91.253906 157.019531 Z M 91.253906 157.019531 "/>
<path style=" stroke:none;fill-rule:nonzero;fill:rgb(90.196078%,90.196078%,90.196078%);fill-opacity:1;" d="M 50.804688 195.726562 L 119.027344 195.726562 C 122.527344 195.726562 125.367188 198.570312 125.367188 202.074219 C 125.367188 205.582031 122.527344 208.425781 119.027344 208.425781 L 50.804688 208.425781 C 47.300781 208.425781 44.464844 205.582031 44.464844 202.074219 C 44.464844 198.570312 47.300781 195.726562 50.804688 195.726562 Z M 50.804688 195.726562 "/>
<path style=" stroke:none;fill-rule:nonzero;fill:rgb(90.196078%,90.196078%,90.196078%);fill-opacity:1;" d="M 84.914062 163.976562 C 99.410156 163.976562 111.179688 175.761719 111.179688 190.28125 L 111.179688 199.65625 L 58.652344 199.65625 L 58.652344 190.28125 C 58.652344 175.761719 70.421875 163.976562 84.914062 163.976562 Z M 84.914062 163.976562 "/>
<path style=" stroke:none;fill-rule:nonzero;fill:rgb(90.196078%,90.196078%,90.196078%);fill-opacity:1;" d="M 41.21875 339.960938 L 126.046875 339.960938 L 126.046875 353.570312 L 41.21875 353.570312 Z M 41.21875 339.960938 "/>
<path style=" stroke:none;fill-rule:nonzero;fill:rgb(24.705882%,23.921569%,33.72549%);fill-opacity:1;" d="M 155.808594 270.816406 C 162.515625 274.871094 163.179688 276.78125 167.242188 278.453125 C 169.300781 279.300781 173.152344 280.464844 180.585938 279.410156 C 190.828125 277.953125 197.144531 273.8125 214.898438 264.132812 C 227.558594 257.230469 233.75 254.210938 242.535156 252.675781 C 249.121094 251.527344 252.945312 251.945312 255.878906 252.675781 C 266.113281 255.230469 271.695312 263.132812 273.035156 265.089844 C 277.65625 271.84375 278.242188 278.4375 278.753906 284.183594 C 279.394531 291.417969 280.320312 301.871094 274.941406 309.957031 C 268.195312 320.089844 258.804688 315.601562 242.535156 325.234375 C 224.554688 335.878906 227.5625 346.378906 212.992188 351.964844 C 194.347656 359.109375 174.046875 347.8125 172.960938 347.191406 C 153.660156 336.101562 149.707031 315.976562 139.605469 317.59375 C 133.570312 318.5625 132.96875 326.070312 123.402344 328.097656 C 121.613281 328.476562 114.25 330.039062 109.105469 325.234375 C 105.949219 322.28125 106.046875 328.890625 107.675781 324.753906 C 109.773438 319.449219 113.996094 309.085938 116.730469 303.277344 C 118.191406 300.171875 116.546875 299.210938 117.683594 290.863281 C 118.242188 286.789062 118.523438 284.730469 119.589844 282.273438 C 122.238281 276.1875 127.382812 273.042969 131.027344 270.816406 C 135.460938 268.105469 139.820312 265.445312 145.324219 266.042969 C 148.472656 266.386719 150.917969 267.863281 155.808594 270.816406 Z M 155.808594 270.816406 "/>
<path style=" stroke:none;fill-rule:nonzero;fill:rgb(24.705882%,23.921569%,33.72549%);fill-opacity:1;" d="M 272.082031 293.730469 C 273.773438 295.117188 274.175781 297.929688 274.941406 303.277344 C 275.648438 308.222656 275.21875 311.257812 274.941406 316.640625 C 274.523438 324.722656 275.179688 323.96875 274.941406 334.78125 C 274.742188 343.675781 274.644531 348.121094 273.988281 351.964844 C 272.808594 358.875 272.179688 356.21875 266.363281 373.921875 C 265.183594 377.511719 264.242188 380.5625 261.597656 381.558594 C 258.28125 382.808594 254.464844 380.015625 253.972656 379.648438 C 253.167969 379.046875 250.339844 376.921875 250.160156 373.921875 C 249.9375 370.113281 254.238281 369.148438 257.785156 363.421875 C 260 359.84375 260.53125 356.261719 261.597656 349.101562 C 262.609375 342.289062 263.117188 338.882812 261.597656 335.734375 C 258.824219 329.988281 252.484375 328.207031 252.066406 328.097656 C 248.273438 327.09375 247.046875 328.515625 242.535156 328.097656 C 238.316406 327.707031 231.371094 325.71875 230.144531 322.367188 C 226.792969 313.191406 264.003906 287.101562 272.082031 293.730469 Z M 272.082031 293.730469 "/>
<path style=" stroke:none;fill-rule:nonzero;fill:rgb(24.705882%,23.921569%,33.72549%);fill-opacity:1;" d="M 256.832031 280.363281 C 258.523438 281.75 258.925781 284.5625 259.691406 289.910156 C 260.398438 294.855469 259.96875 297.890625 259.691406 303.277344 C 259.273438 311.355469 259.933594 310.605469 259.691406 321.414062 C 259.492188 330.308594 259.394531 334.753906 258.738281 338.597656 C 257.558594 345.507812 256.929688 342.851562 251.113281 360.554688 C 249.933594 364.148438 248.996094 367.195312 246.347656 368.195312 C 243.035156 369.441406 239.214844 366.652344 238.722656 366.285156 C 237.921875 365.679688 235.089844 363.554688 234.910156 360.554688 C 234.6875 356.75 238.988281 355.785156 242.535156 350.054688 C 244.75 346.476562 245.285156 342.894531 246.347656 335.734375 C 247.363281 328.921875 247.867188 325.519531 246.347656 322.367188 C 243.578125 316.625 237.234375 314.84375 236.816406 314.730469 C 233.023438 313.726562 231.796875 315.148438 227.289062 314.730469 C 223.070312 314.339844 216.121094 312.351562 214.898438 309.003906 C 211.542969 299.824219 248.757812 273.734375 256.832031 280.363281 Z M 256.832031 280.363281 "/>
<path style=" stroke:none;fill-rule:nonzero;fill:rgb(24.705882%,23.921569%,33.72549%);fill-opacity:1;" d="M 228.242188 327.140625 C 229.3125 328.78125 230.542969 333.007812 233.003906 341.460938 C 234.101562 345.234375 241.210938 370.039062 243.488281 377.742188 C 244.144531 379.953125 244.992188 382.71875 247.300781 385.378906 C 249.246094 387.617188 250.28125 387.546875 251.113281 389.195312 C 253.277344 393.492188 249.058594 399.550781 248.253906 400.652344 C 247.320312 401.933594 242.984375 407.882812 236.816406 407.335938 C 236.171875 407.277344 232.003906 406.90625 231.097656 404.472656 C 229.710938 400.738281 237.875 397.234375 237.769531 391.105469 C 237.707031 387.484375 234.8125 385.988281 231.097656 381.558594 C 223.132812 372.058594 226.53125 367.125 220.617188 359.601562 C 211.769531 348.347656 195.328125 348.140625 192.976562 348.144531 C 186.890625 348.152344 178.417969 348.167969 172.960938 353.875 C 165.359375 361.828125 168.5 375.746094 165.339844 396.832031 C 165.339844 396.832031 164.824219 400.253906 163.433594 405.425781 C 161.132812 413.964844 159.296875 416.167969 158.667969 416.882812 C 157.808594 417.851562 155.296875 420.617188 151.042969 421.65625 C 150.457031 421.796875 147.746094 422.421875 144.371094 421.65625 C 142.132812 421.148438 140.089844 420.683594 138.652344 418.792969 C 137.273438 416.976562 136.75 414.238281 137.699219 412.109375 C 138.847656 409.53125 141.210938 409.949219 144.371094 407.335938 C 146.601562 405.488281 147.761719 402.921875 150.089844 397.789062 C 151.117188 395.515625 152.660156 392.070312 153.902344 387.285156 C 155.335938 381.753906 155.511719 377.476562 155.808594 369.148438 C 156.054688 362.132812 155.933594 356.300781 155.808594 350.054688 C 155.660156 342.78125 155.453125 340.40625 155.808594 335.734375 C 156.175781 330.832031 156.535156 326.058594 157.714844 323.324219 C 164.042969 308.609375 214.269531 305.796875 228.242188 327.140625 Z M 228.242188 327.140625 "/>
<path style=" stroke:none;fill-rule:nonzero;fill:rgb(24.705882%,23.921569%,33.72549%);fill-opacity:1;" d="M 268.269531 262.222656 C 272.34375 259.96875 272.925781 254.6875 273.988281 245.039062 C 274.761719 238.011719 275.222656 233.828125 273.035156 228.808594 C 270.082031 222.039062 264.535156 218.878906 263.503906 218.308594 C 262.375 217.6875 254.972656 213.753906 247.300781 216.398438 C 246.230469 216.769531 243.398438 218.878906 237.769531 223.082031 C 231.058594 228.097656 230.074219 229.054688 229.195312 230.71875 C 226.839844 235.171875 227.089844 241.1875 229.195312 242.175781 C 230.789062 242.925781 233.550781 240.820312 234.910156 239.3125 C 236.539062 237.507812 236.292969 236.417969 237.769531 234.539062 C 238.941406 233.050781 240.042969 232.53125 243.488281 230.71875 C 252.023438 226.234375 252.457031 225.640625 253.972656 225.945312 C 257.753906 226.710938 259.558594 231.316406 259.691406 231.675781 C 260.84375 234.742188 260.054688 237.535156 258.738281 242.175781 C 258.042969 244.632812 257.25 246.527344 255.878906 249.8125 C 253.394531 255.765625 252.742188 256.210938 253.019531 257.449219 C 253.9375 261.515625 262.890625 265.203125 268.269531 262.222656 Z M 268.269531 262.222656 "/>
<path style=" stroke:none;fill-rule:nonzero;fill:rgb(42.352941%,38.823529%,100%);fill-opacity:1;" d="M 170.578125 278.929688 C 172.15625 279.191406 172.921875 288.214844 170.578125 296.117188 C 168.980469 301.515625 165.75 306.984375 165.175781 307.949219 C 164.722656 308.710938 164.285156 309.402344 162.957031 311.390625 C 156.453125 321.113281 153.171875 325.96875 151.519531 325.710938 C 149.316406 325.367188 155.34375 320.148438 155.808594 315.15625 C 156.667969 305.882812 160.824219 304.734375 168.195312 291.289062 C 172.1875 284.015625 169.351562 278.726562 170.578125 278.929688 Z M 170.578125 278.929688 "/>
<path style=" stroke:none;fill-rule:nonzero;fill:rgb(18.431373%,18.039216%,25.490196%);fill-opacity:1;" d="M 137.222656 276.066406 C 136.425781 272.003906 140.957031 266.363281 145.800781 265.566406 C 152.863281 264.402344 158.996094 273.800781 161.050781 279.886719 C 163.875 288.253906 160.703125 295.445312 159.144531 298.980469 C 157.1875 303.414062 155.726562 303.703125 155.332031 303.753906 C 152.445312 304.113281 149.027344 298.824219 147.707031 294.207031 C 146.542969 290.144531 147.855469 289.585938 146.753906 286.570312 C 144.484375 280.355469 138.074219 280.402344 137.222656 276.066406 Z M 137.222656 276.066406 "/>
<path style=" stroke:none;fill-rule:nonzero;fill:rgb(42.352941%,38.823529%,100%);fill-opacity:1;" d="M 169.175781 296.433594 L 358.292969 172.800781 L 355.507812 172.167969 L 166.386719 295.796875 Z M 169.175781 296.433594 "/>
<path style=" stroke:none;fill-rule:nonzero;fill:rgb(62.745098%,38.039216%,41.568627%);fill-opacity:1;" d="M 403.921875 60.003906 L 399.78125 44.792969 L 418.417969 37.875 L 420.492188 51.707031 Z M 403.921875 60.003906 "/>
<use xlink:href="#surface5" mask="url(#mask0)"/>
<path style=" stroke:none;fill-rule:nonzero;fill:rgb(62.745098%,38.039216%,41.568627%);fill-opacity:1;" d="M 349.359375 190.386719 C 345.800781 188.265625 345.613281 182 348.941406 176.398438 C 350.398438 173.945312 352.285156 172.023438 354.25 170.820312 L 356.203125 167.621094 L 380.933594 123.214844 C 380.933594 123.214844 391.757812 81.335938 396.164062 76.273438 C 400.570312 71.207031 406.941406 72.402344 406.941406 72.402344 L 412.59375 77.429688 L 392.421875 136.746094 L 367.53125 171.859375 L 364.195312 176.746094 C 364.074219 179.046875 363.289062 181.628906 361.832031 184.082031 C 358.503906 189.683594 352.917969 192.507812 349.359375 190.386719 Z M 349.359375 190.386719 "/>
<path style=" stroke:none;fill-rule:nonzero;fill:rgb(42.352941%,38.823529%,100%);fill-opacity:1;" d="M 402.902344 55.660156 C 402.902344 55.660156 410.769531 55.355469 415.730469 61.476562 C 420.695312 67.59375 394.695312 136.570312 394.695312 136.570312 L 373.519531 135.820312 Z M 402.902344 55.660156 "/>
<path style=" stroke:none;fill-rule:nonzero;fill:rgb(62.745098%,38.039216%,41.568627%);fill-opacity:1;" d="M 424.289062 27.851562 C 424.289062 38.542969 415.632812 47.210938 404.957031 47.210938 C 394.28125 47.210938 385.628906 38.542969 385.628906 27.851562 C 385.628906 17.15625 394.28125 8.488281 404.957031 8.488281 C 415.632812 8.488281 424.289062 17.15625 424.289062 27.851562 Z M 424.289062 27.851562 "/>
<path style=" stroke:none;fill-rule:nonzero;fill:rgb(62.745098%,38.039216%,41.568627%);fill-opacity:1;" d="M 359.742188 308.945312 L 346.625 341.445312 L 339.03125 333.839844 L 336.269531 319.316406 L 347.316406 305.488281 Z M 359.742188 308.945312 "/>
<path style=" stroke:none;fill-rule:nonzero;fill:rgb(62.745098%,38.039216%,41.568627%);fill-opacity:1;" d="M 482.621094 297.191406 L 495.738281 312.402344 L 489.523438 324.851562 L 475.71875 322.777344 L 468.8125 303.414062 Z M 482.621094 297.191406 "/>
<path style=" stroke:none;fill-rule:nonzero;fill:rgb(62.745098%,38.039216%,41.568627%);fill-opacity:1;" d="M 395.292969 115.671875 L 393.566406 143.675781 L 436.367188 136.070312 L 433.605469 118.78125 Z M 395.292969 115.671875 "/>
<path style=" stroke:none;fill-rule:nonzero;fill:rgb(18.431373%,18.039216%,25.490196%);fill-opacity:1;" d="M 393.222656 144.023438 L 436.367188 129.847656 C 436.367188 129.847656 452.246094 161.65625 434.988281 181.710938 C 417.730469 201.761719 360.433594 315.859375 360.433594 315.859375 L 343.171875 307.5625 L 368.027344 234.953125 L 395.640625 167.878906 Z M 393.222656 144.023438 "/>
<path style=" stroke:none;fill-rule:nonzero;fill:rgb(18.431373%,18.039216%,25.490196%);fill-opacity:1;" d="M 434.988281 169.953125 L 451.554688 242.5625 L 486.074219 298.574219 L 468.125 308.945312 L 419.800781 242.5625 L 403.921875 191.390625 Z M 434.988281 169.953125 "/>
<path style=" stroke:none;fill-rule:nonzero;fill:rgb(18.431373%,18.039216%,25.490196%);fill-opacity:1;" d="M 330.058594 316.550781 L 318.101562 316.550781 C 318.101562 316.550781 304.152344 311.019531 300.882812 316.550781 C 297.613281 322.085938 315.46875 337.773438 315.46875 337.773438 C 315.46875 337.773438 340.414062 351.820312 343.863281 351.128906 C 347.316406 350.4375 348.695312 342.136719 348.695312 342.136719 L 352.839844 332.457031 L 346.625 334.53125 C 346.625 334.53125 338.339844 329.691406 340.414062 321.394531 Z M 330.058594 316.550781 "/>
<path style=" stroke:none;fill-rule:nonzero;fill:rgb(18.431373%,18.039216%,25.490196%);fill-opacity:1;" d="M 492.976562 314.476562 L 492.976562 307.5625 L 501 314.476562 C 501 314.476562 514.375 319.316406 504.019531 329.691406 C 493.667969 340.0625 480.550781 351.128906 480.550781 351.128906 C 480.550781 351.128906 459.839844 356.660156 458.460938 350.4375 C 457.078125 344.210938 458.460938 341.695312 458.460938 341.695312 L 466.054688 337.988281 L 472.957031 320.007812 L 484 321.394531 Z M 492.976562 314.476562 "/>
<path style=" stroke:none;fill-rule:nonzero;fill:rgb(18.431373%,18.039216%,25.490196%);fill-opacity:1;" d="M 410.828125 31.652344 L 404.613281 30.960938 L 393.222656 19.550781 C 393.222656 19.550781 382.867188 25.085938 382.867188 20.933594 C 382.867188 1.574219 394.601562 2.265625 404.269531 0.882812 C 413.933594 -0.5 412.898438 -0.847656 416.003906 4.339844 C 417.425781 6.710938 422.5625 8.140625 422.5625 8.140625 C 422.5625 8.140625 432.226562 -4.996094 437.058594 10.910156 C 441.890625 26.8125 435.679688 75.910156 440.511719 80.058594 C 445.34375 84.207031 420.667969 88.351562 423.339844 72.101562 C 426.011719 55.855469 430.847656 30.960938 428.085938 25.429688 C 425.324219 19.898438 424.632812 21.28125 424.632812 21.28125 C 428.054688 19.882812 430.289062 44.53125 417.386719 45.738281 L 417.039062 33.726562 C 417.039062 33.726562 414.96875 27.503906 410.828125 31.652344 Z M 410.828125 31.652344 "/>
<path style=" stroke:none;fill-rule:nonzero;fill:rgb(42.352941%,38.823529%,100%);fill-opacity:1;" d="M 402.195312 55.511719 L 422.90625 47.210938 L 450.519531 130.191406 L 393.707031 128.121094 L 388.589844 103.351562 C 388.589844 103.351562 383.597656 90.460938 387.738281 82.855469 C 391.878906 75.25 402.195312 55.511719 402.195312 55.511719 Z M 402.195312 55.511719 "/>
<path style=" stroke:none;fill-rule:nonzero;fill:rgb(62.745098%,38.039216%,41.568627%);fill-opacity:1;" d="M 456.085938 194.511719 C 451.960938 194.867188 448.164062 189.890625 447.605469 183.390625 C 447.363281 180.546875 447.78125 177.882812 448.671875 175.757812 L 448.398438 172.019531 L 442.644531 121.5 C 442.644531 121.5 431.9375 80.175781 432.570312 73.488281 C 433.207031 66.800781 434.207031 65.027344 434.207031 65.027344 L 441.722656 65.8125 L 459.855469 125.785156 L 460.070312 168.847656 L 460.203125 174.765625 C 461.445312 176.710938 462.308594 179.261719 462.550781 182.105469 C 463.109375 188.601562 460.214844 194.15625 456.085938 194.511719 Z M 456.085938 194.511719 "/>
<path style=" stroke:none;fill-rule:nonzero;fill:rgb(42.352941%,38.823529%,100%);fill-opacity:1;" d="M 421.179688 53.78125 C 421.179688 53.78125 427.394531 48.941406 434.988281 51.015625 C 442.582031 53.089844 461.605469 124.316406 461.605469 124.316406 L 443.960938 136.070312 Z M 421.179688 53.78125 "/>
</g>
</svg>
