<?xml version="1.0" encoding="UTF-8"?>
<svg xmlns="http://www.w3.org/2000/svg" xmlns:xlink="http://www.w3.org/1999/xlink" width="366px" height="180px" viewBox="0 0 548 326" version="1.1">
<g id="surface1">
<path style=" stroke:none;fill-rule:nonzero;fill:rgb(94.901961%,94.901961%,94.901961%);fill-opacity:1;" d="M 59.5 229.914062 C 57.136719 230.167969 54.554688 230.550781 51.808594 231.113281 C 40.164062 233.484375 39.921875 241.398438 40.023438 243.214844 L 39.945312 243.164062 C 38.777344 245.042969 38.042969 246.945312 37.597656 248.742188 L 37.066406 224.488281 C 37.410156 223.765625 37.722656 222.949219 37.984375 222.113281 C 38.859375 224.800781 40.285156 227.339844 41.519531 227.171875 C 43.117188 226.953125 43.816406 222.234375 43.519531 218.882812 C 45.554688 221.507812 48.980469 224.316406 50.273438 223.449219 C 51.308594 222.757812 50.695312 219.910156 49.566406 217.320312 C 51.917969 218.738281 54.519531 219.671875 55.328125 218.769531 C 56.429688 217.542969 53.789062 213.351562 51.355469 211.011719 C 54.613281 211.316406 58.761719 210.796875 59.03125 209.3125 C 59.257812 208.085938 56.789062 206.542969 54.148438 205.550781 C 56.800781 204.847656 59.28125 203.628906 59.199219 202.421875 C 59.101562 200.988281 55.417969 200.027344 52.242188 199.878906 C 54.636719 198.003906 56.839844 195.410156 56.164062 194.234375 C 55.546875 193.15625 52.667969 193.574219 50.007812 194.523438 C 51.582031 192.273438 52.6875 189.738281 51.84375 188.871094 C 50.796875 187.789062 47.074219 189.65625 44.535156 191.71875 C 45.027344 188.503906 44.777344 184.449219 43.339844 184.082031 C 42.132812 183.773438 40.425781 186.132812 39.257812 188.703125 C 38.738281 186.003906 37.691406 183.445312 36.484375 183.445312 C 34.761719 183.445312 33.367188 188.640625 33.367188 192.027344 C 33.367188 192.21875 33.371094 192.398438 33.378906 192.570312 C 33.207031 192.371094 33.007812 192.160156 32.78125 191.941406 C 30.355469 189.582031 25.660156 186.964844 24.460938 188.199219 C 23.617188 189.070312 24.722656 191.605469 26.296875 193.855469 C 23.640625 192.90625 20.757812 192.488281 20.140625 193.566406 C 19.308594 195.015625 22.863281 198.636719 25.753906 200.390625 C 25.582031 200.367188 25.398438 200.351562 25.203125 200.339844 C 21.828125 200.109375 16.554688 201.148438 16.4375 202.867188 C 16.355469 204.074219 18.835938 205.292969 21.492188 205.996094 C 18.847656 206.988281 16.382812 208.53125 16.605469 209.757812 C 16.878906 211.242188 21.023438 211.761719 24.285156 211.457031 C 21.847656 213.796875 19.207031 217.988281 20.308594 219.214844 C 21.117188 220.117188 23.71875 219.183594 26.070312 217.765625 C 24.941406 220.355469 24.328125 223.203125 25.363281 223.898438 C 26.726562 224.8125 30.472656 221.628906 32.445312 218.890625 C 32.246094 222.242188 33.046875 226.84375 34.632812 227.023438 C 35.300781 227.101562 36.003906 226.390625 36.636719 225.296875 L 34.839844 251.371094 C 34.417969 254.40625 37.109375 256.390625 37.347656 257.640625 L 37.738281 275.296875 C 37.300781 274.039062 36.710938 272.75 35.914062 271.472656 L 35.835938 271.523438 C 35.9375 269.707031 35.695312 261.792969 24.050781 259.421875 C 21.304688 258.863281 18.726562 258.480469 16.359375 258.222656 C 13.566406 257.921875 12.476562 261.75 15 262.988281 C 18.652344 264.777344 22.089844 267.035156 23.882812 269.707031 C 28.464844 276.535156 34.792969 272.585938 35.691406 271.972656 C 36.699219 273.648438 37.355469 275.335938 37.773438 276.941406 L 37.980469 286.320312 C 37.929688 286.539062 37.894531 286.664062 37.890625 286.675781 L 37.988281 286.703125 L 38.488281 309.394531 L 43.113281 309.355469 L 41.457031 286.164062 C 41.738281 284.910156 42.59375 280.648438 41.457031 276.222656 L 39.804688 258 C 39.800781 257.984375 39.898438 258.476562 39.804688 258 L 37.644531 250.835938 C 37.960938 248.621094 38.6875 246.128906 40.167969 243.664062 C 41.066406 244.277344 47.398438 248.226562 51.976562 241.394531 C 53.769531 238.722656 57.207031 236.46875 60.863281 234.679688 C 63.382812 233.441406 62.296875 229.613281 59.5 229.914062 Z M 38.367188 283.601562 L 38.277344 279.632812 C 38.453125 281.132812 38.445312 282.488281 38.367188 283.601562 Z M 38.367188 283.601562 "/>
<path style=" stroke:none;fill-rule:nonzero;fill:rgb(24.705882%,23.921569%,33.72549%);fill-opacity:1;" d="M 0 310.476562 C 0 310.972656 0.398438 311.367188 0.890625 311.367188 L 546.863281 311.367188 C 547.355469 311.367188 547.753906 310.972656 547.753906 310.476562 C 547.753906 309.980469 547.355469 309.585938 546.863281 309.585938 L 0.890625 309.585938 C 0.398438 309.585938 0 309.980469 0 310.476562 Z M 0 310.476562 "/>
<path style=" stroke:none;fill-rule:nonzero;fill:rgb(24.705882%,23.921569%,33.72549%);fill-opacity:1;" d="M 371.757812 270.796875 C 371.757812 293.148438 353.65625 311.269531 331.328125 311.269531 C 309.003906 311.269531 290.902344 293.148438 290.902344 270.796875 C 290.902344 248.449219 309.003906 230.328125 331.328125 230.328125 C 353.65625 230.328125 371.757812 248.449219 371.757812 270.796875 Z M 371.757812 270.796875 "/>
<path style=" stroke:none;fill-rule:nonzero;fill:rgb(100%,100%,100%);fill-opacity:1;" d="M 358.28125 270.796875 C 358.28125 285.699219 346.214844 297.777344 331.328125 297.777344 C 316.445312 297.777344 304.378906 285.699219 304.378906 270.796875 C 304.378906 255.898438 316.445312 243.820312 331.328125 243.820312 C 346.214844 243.820312 358.28125 255.898438 358.28125 270.796875 Z M 358.28125 270.796875 "/>
<path style=" stroke:none;fill-rule:nonzero;fill:rgb(24.705882%,23.921569%,33.72549%);fill-opacity:1;" d="M 346.675781 270.796875 C 346.675781 279.285156 339.804688 286.160156 331.328125 286.160156 C 322.855469 286.160156 315.984375 279.285156 315.984375 270.796875 C 315.984375 262.3125 322.855469 255.433594 331.328125 255.433594 C 339.804688 255.433594 346.675781 262.3125 346.675781 270.796875 Z M 346.675781 270.796875 "/>
<path style=" stroke:none;fill-rule:nonzero;fill:rgb(24.705882%,23.921569%,33.72549%);fill-opacity:1;" d="M 138.183594 270.796875 C 138.183594 293.148438 120.082031 311.269531 97.757812 311.269531 C 75.429688 311.269531 57.328125 293.148438 57.328125 270.796875 C 57.328125 248.449219 75.429688 230.328125 97.757812 230.328125 C 120.082031 230.328125 138.183594 248.449219 138.183594 270.796875 Z M 138.183594 270.796875 "/>
<path style=" stroke:none;fill-rule:nonzero;fill:rgb(100%,100%,100%);fill-opacity:1;" d="M 124.707031 270.796875 C 124.707031 285.699219 112.640625 297.777344 97.757812 297.777344 C 82.871094 297.777344 70.804688 285.699219 70.804688 270.796875 C 70.804688 255.898438 82.871094 243.820312 97.757812 243.820312 C 112.640625 243.820312 124.707031 255.898438 124.707031 270.796875 Z M 124.707031 270.796875 "/>
<path style=" stroke:none;fill-rule:nonzero;fill:rgb(42.352941%,38.823529%,100%);fill-opacity:1;" d="M 386.632812 251.550781 C 381.367188 238.265625 362.964844 197.671875 330.195312 184.234375 C 329.945312 184.132812 329.679688 184.058594 329.410156 184.023438 L 224.296875 168.949219 C 222.566406 168.699219 220.953125 169.886719 220.671875 171.617188 L 218.832031 183.007812 C 218.703125 183.789062 218.867188 184.589844 219.296875 185.253906 C 224.636719 193.546875 258.847656 249.816406 204.0625 249.816406 C 150.136719 249.816406 134.175781 210.5625 131.78125 203.636719 C 131.554688 202.984375 131.546875 202.28125 131.753906 201.621094 L 148.363281 148.972656 C 148.65625 148.035156 148.492188 147.078125 148.015625 146.308594 L 155.316406 132.734375 L 168.691406 140.316406 L 175.613281 140.398438 L 199.25 152.765625 L 204.0625 144.894531 L 155.316406 120.558594 C 155.316406 120.558594 155.402344 114.917969 139.679688 110.421875 L 114.972656 99.179688 L 111.980469 102.925781 L 119.464844 108.921875 L 120.214844 113.417969 L 125.457031 114.917969 L 135.9375 135.152344 L 132.941406 140.949219 L 136.578125 142.722656 L 135.53125 142.488281 C 134.03125 142.144531 132.496094 142.921875 131.878906 144.335938 L 115.363281 182.226562 C 115.109375 182.808594 114.691406 183.300781 114.160156 183.640625 L 108.277344 187.441406 C 107.726562 187.796875 107.296875 188.3125 107.050781 188.917969 L 100.328125 205.234375 C 100.121094 205.742188 100.058594 206.277344 100.113281 206.792969 C 91.738281 208.378906 67.109375 215.242188 53.585938 242.320312 L 69.308594 255.0625 C 69.308594 255.0625 93.953125 239.097656 134.679688 255.722656 C 141.757812 266.75 152.085938 275.90625 166.996094 276.765625 C 206.308594 279.042969 271.4375 281.289062 278.925781 272.296875 C 284.40625 265.714844 288.21875 261.601562 289.867188 259.875 C 290.449219 259.265625 291.242188 258.910156 292.082031 258.882812 L 383.753906 255.953125 C 385.976562 255.882812 387.453125 253.625 386.632812 251.550781 Z M 386.632812 251.550781 "/>
<path style=" stroke:none;fill-rule:nonzero;fill:rgb(24.705882%,23.921569%,33.72549%);fill-opacity:1;" d="M 145.667969 121.664062 C 145.667969 128.285156 140.304688 133.652344 133.691406 133.652344 C 127.074219 133.652344 121.710938 128.285156 121.710938 121.664062 C 121.710938 115.039062 127.074219 109.671875 133.691406 109.671875 C 140.304688 109.671875 145.667969 115.039062 145.667969 121.664062 Z M 145.667969 121.664062 "/>
<path style=" stroke:none;fill-rule:nonzero;fill:rgb(24.705882%,23.921569%,33.72549%);fill-opacity:1;" d="M 325.515625 184.28125 C 325.375 184.28125 325.230469 184.277344 325.089844 184.273438 L 224.9375 180.390625 C 220.503906 180.21875 216.710938 177.394531 215.265625 173.195312 L 213.898438 169.203125 C 212.777344 165.945312 213.265625 162.457031 215.230469 159.632812 C 217.195312 156.808594 220.296875 155.144531 223.734375 155.0625 L 327.207031 152.683594 C 330.410156 152.609375 333.496094 153.980469 335.585938 156.453125 C 337.679688 158.925781 338.53125 162.167969 337.925781 165.347656 L 335.972656 175.605469 C 335.007812 180.691406 330.644531 184.28125 325.515625 184.28125 Z M 325.515625 184.28125 "/>
<path style=" stroke:none;fill-rule:nonzero;fill:rgb(24.705882%,23.921569%,33.72549%);fill-opacity:1;" d="M 113.101562 270.796875 C 113.101562 279.285156 106.230469 286.160156 97.757812 286.160156 C 89.28125 286.160156 82.410156 279.285156 82.410156 270.796875 C 82.410156 262.3125 89.28125 255.433594 97.757812 255.433594 C 106.230469 255.433594 113.101562 262.3125 113.101562 270.796875 Z M 113.101562 270.796875 "/>
<path style=" stroke:none;fill-rule:nonzero;fill:rgb(24.705882%,23.921569%,33.72549%);fill-opacity:1;" d="M 365.75 227.058594 C 363.355469 227.058594 361.070312 225.773438 359.855469 223.570312 L 352.265625 209.828125 C 351.066406 207.648438 351.132812 205.089844 352.449219 202.980469 C 353.765625 200.871094 356.042969 199.679688 358.515625 199.816406 L 372.28125 200.523438 C 374.84375 200.65625 377.148438 202.269531 378.148438 204.636719 L 382.171875 214.152344 C 382.90625 215.894531 382.886719 217.804688 382.117188 219.53125 C 381.351562 221.261719 379.941406 222.550781 378.15625 223.167969 L 367.957031 226.6875 C 367.230469 226.941406 366.484375 227.058594 365.75 227.058594 Z M 365.75 227.058594 "/>
<path style=" stroke:none;fill-rule:nonzero;fill:rgb(24.705882%,23.921569%,33.72549%);fill-opacity:1;" d="M 191.65625 318.40625 C 191.542969 318.40625 191.429688 318.402344 191.3125 318.386719 L 188.253906 318.046875 C 187.257812 317.9375 186.394531 317.375 185.882812 316.507812 C 185.375 315.640625 185.308594 314.609375 185.695312 313.683594 L 201.597656 275.882812 L 201.941406 276.027344 L 201.597656 275.882812 C 202.03125 274.84375 202.996094 274.113281 204.113281 273.972656 C 205.199219 273.835938 206.257812 274.261719 206.949219 275.109375 C 207.636719 275.957031 207.84375 277.082031 207.492188 278.117188 L 194.652344 316.257812 C 194.21875 317.546875 192.992188 318.40625 191.65625 318.40625 Z M 191.65625 318.40625 "/>
<path style=" stroke:none;fill-rule:nonzero;fill:rgb(62.745098%,38.039216%,41.568627%);fill-opacity:1;" d="M 274.207031 54.621094 C 274.207031 54.621094 268.390625 42.972656 269.554688 32.492188 L 250.195312 42.539062 L 250.941406 61.605469 Z M 274.207031 54.621094 "/>
<path style=" stroke:none;fill-rule:nonzero;fill:rgb(62.745098%,38.039216%,41.568627%);fill-opacity:1;" d="M 279.65625 30.433594 C 279.65625 40.089844 271.835938 47.917969 262.191406 47.917969 C 252.546875 47.917969 244.730469 40.089844 244.730469 30.433594 C 244.730469 20.78125 252.546875 12.953125 262.191406 12.953125 C 271.835938 12.953125 279.65625 20.78125 279.65625 30.433594 Z M 279.65625 30.433594 "/>
<path style=" stroke:none;fill-rule:nonzero;fill:rgb(62.745098%,38.039216%,41.568627%);fill-opacity:1;" d="M 280.03125 304.960938 L 269.375 304.960938 L 264.304688 263.8125 L 280.03125 263.816406 Z M 280.03125 304.960938 "/>
<path style=" stroke:none;fill-rule:nonzero;fill:rgb(18.431373%,18.039216%,25.490196%);fill-opacity:1;" d="M 243.519531 304.71875 C 243.191406 305.277344 243.015625 307.085938 243.015625 307.734375 C 243.015625 309.734375 244.632812 311.355469 246.632812 311.355469 L 279.632812 311.355469 C 280.996094 311.355469 282.101562 310.25 282.101562 308.886719 L 282.101562 307.511719 C 282.101562 307.511719 283.730469 303.375 280.371094 298.28125 C 280.371094 298.28125 276.195312 302.269531 269.953125 296.023438 L 268.109375 292.683594 L 254.785156 302.4375 L 247.402344 303.347656 C 245.785156 303.546875 244.351562 303.320312 243.523438 304.71875 Z M 243.519531 304.71875 "/>
<path style=" stroke:none;fill-rule:nonzero;fill:rgb(90.196078%,90.196078%,90.196078%);fill-opacity:1;" d="M 248.613281 54.621094 L 274.207031 51.125 L 293.984375 60.441406 L 295.144531 132.644531 C 295.144531 132.644531 246.496094 138.46875 238.832031 130.898438 C 231.164062 123.328125 236.980469 62.769531 236.980469 62.769531 Z M 248.613281 54.621094 "/>
<path style=" stroke:none;fill-rule:nonzero;fill:rgb(18.431373%,18.039216%,25.490196%);fill-opacity:1;" d="M 257.824219 34.886719 L 253.128906 34.886719 C 253.128906 34.886719 249.058594 29.871094 249.605469 32.925781 C 250.152344 35.984375 247.960938 39.277344 247.960938 39.277344 L 244.671875 38.179688 C 244.671875 38.179688 238.097656 10.5 257.824219 8.980469 C 277.550781 7.460938 281.9375 22.820312 281.9375 22.820312 C 281.9375 22.820312 280.839844 30.5 278.648438 28.304688 C 276.457031 26.113281 264.402344 25.015625 264.402344 25.015625 Z M 257.824219 34.886719 "/>
<path style=" stroke:none;fill-rule:nonzero;fill:rgb(62.745098%,38.039216%,41.568627%);fill-opacity:1;" d="M 236.765625 223.496094 L 227.019531 227.808594 L 205.757812 192.234375 L 220.140625 185.867188 Z M 236.765625 223.496094 "/>
<path style=" stroke:none;fill-rule:nonzero;fill:rgb(18.431373%,18.039216%,25.490196%);fill-opacity:1;" d="M 203.277344 238.058594 C 203.199219 238.703125 203.769531 240.425781 204.03125 241.023438 C 204.839844 242.851562 206.976562 243.675781 208.804688 242.867188 L 238.984375 229.503906 C 240.230469 228.953125 240.792969 227.496094 240.242188 226.246094 L 239.6875 224.988281 C 239.6875 224.988281 239.507812 220.546875 234.375 217.25 C 234.375 217.25 232.167969 222.589844 223.933594 219.402344 L 220.902344 217.09375 L 212.660156 231.410156 L 206.273438 235.234375 C 204.875 236.070312 203.472656 236.441406 203.277344 238.058594 Z M 203.277344 238.058594 "/>
<path style=" stroke:none;fill-rule:nonzero;fill:rgb(18.431373%,18.039216%,25.490196%);fill-opacity:1;" d="M 291.65625 125.65625 L 295.144531 136.21875 L 295.144531 172.53125 C 295.144531 172.53125 283.746094 205.429688 283.746094 205.429688 L 284.675781 282.128906 L 264.222656 282.128906 C 264.222656 282.128906 261.914062 203.890625 261.914062 203.890625 L 263.738281 165.25 L 249.777344 159.429688 L 213.109375 161.695312 L 230.257812 203.890625 L 211.386719 216.492188 C 211.386719 216.492188 183.164062 152.105469 187.386719 145.867188 C 191.609375 139.632812 241.050781 128.628906 241.050781 128.628906 C 241.050781 128.628906 291.65625 126.820312 291.65625 125.65625 Z M 291.65625 125.65625 "/>
<path style=" stroke:none;fill-rule:nonzero;fill:rgb(62.745098%,38.039216%,41.568627%);fill-opacity:1;" d="M 302.125 83.734375 L 307.75 92.953125 C 307.75 92.953125 315.699219 124.238281 307.75 124.363281 C 299.800781 124.492188 283.746094 108.421875 283.746094 108.421875 L 285.839844 100.035156 L 291.65625 102.367188 L 290.492188 83.734375 Z M 302.125 83.734375 "/>
<path style=" stroke:none;fill-rule:nonzero;fill:rgb(90.196078%,90.196078%,90.196078%);fill-opacity:1;" d="M 284.675781 60.296875 C 284.675781 60.296875 303.289062 57.011719 305.035156 69.207031 C 306.777344 81.402344 307.75 92.953125 307.75 92.953125 L 287.585938 94.625 Z M 284.675781 60.296875 "/>
<path style=" stroke:none;fill-rule:nonzero;fill:rgb(62.745098%,38.039216%,41.568627%);fill-opacity:1;" d="M 283.207031 97.015625 C 278.480469 93.644531 273.289062 92.832031 271.605469 95.195312 C 269.921875 97.5625 272.390625 102.210938 277.113281 105.578125 C 281.839844 108.949219 287.035156 109.761719 288.714844 107.398438 C 290.398438 105.03125 287.933594 100.382812 283.207031 97.015625 Z M 283.207031 97.015625 "/>
<path style=" stroke:none;fill-rule:nonzero;fill:rgb(94.901961%,94.901961%,94.901961%);fill-opacity:1;" d="M 442.054688 229.914062 C 439.6875 230.167969 437.105469 230.550781 434.359375 231.113281 C 422.71875 233.484375 422.476562 241.398438 422.578125 243.214844 L 422.5 243.164062 C 421.328125 245.042969 420.59375 246.945312 420.152344 248.742188 L 419.617188 224.488281 C 419.960938 223.765625 420.277344 222.949219 420.539062 222.113281 C 421.410156 224.800781 422.839844 227.339844 424.070312 227.171875 C 425.671875 226.953125 426.367188 222.234375 426.070312 218.882812 C 428.105469 221.507812 431.535156 224.316406 432.828125 223.449219 C 433.859375 222.757812 433.246094 219.910156 432.121094 217.320312 C 434.46875 218.738281 437.074219 219.671875 437.878906 218.769531 C 438.984375 217.542969 436.339844 213.351562 433.90625 211.011719 C 437.164062 211.316406 441.3125 210.796875 441.585938 209.3125 C 441.808594 208.085938 439.339844 206.542969 436.699219 205.550781 C 439.351562 204.847656 441.832031 203.628906 441.75 202.421875 C 441.652344 200.988281 437.96875 200.027344 434.792969 199.878906 C 437.1875 198.003906 439.390625 195.410156 438.71875 194.234375 C 438.097656 193.15625 435.21875 193.574219 432.5625 194.523438 C 434.132812 192.273438 435.238281 189.738281 434.398438 188.871094 C 433.347656 187.789062 429.625 189.65625 427.085938 191.71875 C 427.578125 188.503906 427.328125 184.449219 425.890625 184.082031 C 424.683594 183.773438 422.976562 186.132812 421.808594 188.703125 C 421.289062 186.003906 420.242188 183.445312 419.035156 183.445312 C 417.3125 183.445312 415.917969 188.640625 415.917969 192.027344 C 415.917969 192.21875 415.921875 192.398438 415.929688 192.570312 C 415.757812 192.371094 415.558594 192.160156 415.335938 191.941406 C 412.910156 189.582031 408.210938 186.964844 407.011719 188.199219 C 406.171875 189.070312 407.277344 191.605469 408.847656 193.855469 C 406.191406 192.90625 403.3125 192.488281 402.691406 193.566406 C 401.859375 195.015625 405.414062 198.636719 408.304688 200.390625 C 408.132812 200.367188 407.949219 200.351562 407.757812 200.339844 C 404.382812 200.109375 399.109375 201.148438 398.992188 202.867188 C 398.910156 204.074219 401.390625 205.292969 404.042969 205.996094 C 401.402344 206.988281 398.933594 208.53125 399.15625 209.757812 C 399.429688 211.242188 403.574219 211.761719 406.835938 211.457031 C 404.398438 213.796875 401.757812 217.988281 402.859375 219.214844 C 403.667969 220.117188 406.273438 219.183594 408.621094 217.765625 C 407.492188 220.355469 406.882812 223.203125 407.914062 223.898438 C 409.28125 224.8125 413.023438 221.628906 415 218.890625 C 414.796875 222.242188 415.597656 226.84375 417.1875 227.023438 C 417.851562 227.101562 418.554688 226.390625 419.191406 225.296875 L 417.390625 251.371094 C 416.96875 254.40625 419.660156 256.390625 419.902344 257.640625 L 420.289062 275.296875 C 419.851562 274.039062 419.261719 272.75 418.464844 271.472656 L 418.386719 271.523438 C 418.488281 269.707031 418.246094 261.792969 406.605469 259.421875 C 403.859375 258.863281 401.277344 258.480469 398.910156 258.222656 C 396.117188 257.921875 395.027344 261.75 397.550781 262.988281 C 401.207031 264.777344 404.644531 267.035156 406.433594 269.707031 C 411.015625 276.535156 417.34375 272.585938 418.246094 271.972656 C 419.25 273.648438 419.910156 275.335938 420.324219 276.941406 L 420.53125 286.320312 C 420.480469 286.539062 420.445312 286.664062 420.445312 286.675781 L 420.539062 286.703125 L 421.039062 309.394531 L 425.664062 309.355469 L 424.011719 286.164062 C 424.289062 284.910156 425.144531 280.648438 424.011719 276.222656 L 422.355469 258 C 422.351562 257.984375 422.449219 258.476562 422.355469 258 L 420.195312 250.835938 C 420.511719 248.621094 421.238281 246.128906 422.71875 243.664062 C 423.617188 244.277344 429.949219 248.226562 434.53125 241.394531 C 436.320312 238.722656 439.757812 236.46875 443.414062 234.679688 C 445.9375 233.441406 444.847656 229.613281 442.054688 229.914062 Z M 420.917969 283.601562 L 420.828125 279.632812 C 421.007812 281.132812 420.996094 282.488281 420.917969 283.601562 Z M 420.917969 283.601562 "/>
<path style=" stroke:none;fill-rule:nonzero;fill:rgb(62.745098%,38.039216%,41.568627%);fill-opacity:1;" d="M 388.175781 306.570312 L 396.21875 304.828125 L 393.34375 272.945312 L 381.472656 275.511719 Z M 388.175781 306.570312 "/>
<path style=" stroke:none;fill-rule:nonzero;fill:rgb(18.431373%,18.039216%,25.490196%);fill-opacity:1;" d="M 415.695312 300.425781 C 416.035156 300.796875 416.460938 302.128906 416.566406 302.621094 C 416.894531 304.128906 415.933594 305.617188 414.425781 305.945312 L 389.519531 311.332031 C 388.488281 311.554688 387.476562 310.898438 387.253906 309.871094 L 387.03125 308.832031 C 387.03125 308.832031 385.125 305.976562 386.832031 301.582031 C 386.832031 301.582031 390.632812 303.914062 394.328125 298.175781 L 395.171875 295.355469 L 406.820312 300.542969 L 412.542969 300.027344 C 413.792969 299.914062 414.835938 299.503906 415.695312 300.425781 Z M 415.695312 300.425781 "/>
<path style=" stroke:none;fill-rule:nonzero;fill:rgb(62.745098%,38.039216%,41.568627%);fill-opacity:1;" d="M 402.5625 304.128906 L 409.273438 299.363281 L 394.09375 271.183594 L 384.191406 278.21875 Z M 402.5625 304.128906 "/>
<path style=" stroke:none;fill-rule:nonzero;fill:rgb(18.431373%,18.039216%,25.490196%);fill-opacity:1;" d="M 425.445312 287.644531 C 425.90625 287.847656 426.820312 288.90625 427.109375 289.316406 C 428.003906 290.574219 427.707031 292.320312 426.449219 293.214844 L 405.667969 307.980469 C 404.808594 308.589844 403.621094 308.386719 403.011719 307.527344 L 402.398438 306.660156 C 402.398438 306.660156 399.523438 304.789062 399.367188 300.074219 C 399.367188 300.074219 403.777344 300.71875 404.917969 293.992188 L 404.585938 291.066406 L 417.332031 291.25 L 422.390625 288.515625 C 423.496094 287.917969 424.296875 287.132812 425.445312 287.644531 Z M 425.445312 287.644531 "/>
<path style=" stroke:none;fill-rule:nonzero;fill:rgb(18.431373%,18.039216%,25.490196%);fill-opacity:1;" d="M 305.894531 146.492188 C 305.894531 146.492188 293.382812 163.523438 318.410156 182.671875 L 369.503906 166.324219 L 351.253906 128.226562 L 335.09375 119.351562 Z M 305.894531 146.492188 "/>
<path style=" stroke:none;fill-rule:nonzero;fill:rgb(18.431373%,18.039216%,25.490196%);fill-opacity:1;" d="M 369.503906 166.324219 L 389.316406 204.949219 L 401.828125 285.324219 L 386.1875 286.367188 L 370.546875 210.167969 L 342.914062 168.9375 L 362.203125 160.0625 "/>
<path style=" stroke:none;fill-rule:nonzero;fill:rgb(18.431373%,18.039216%,25.490196%);fill-opacity:1;" d="M 318.410156 170.539062 L 318.410156 182.671875 C 318.410156 182.671875 353.863281 221.648438 353.863281 221.648438 C 353.863281 221.648438 353.863281 250.878906 367.417969 264.449219 L 383.058594 288.457031 L 396.613281 281.148438 L 376.800781 211.210938 L 341.347656 165.28125 Z M 318.410156 170.539062 "/>
<path style=" stroke:none;fill-rule:nonzero;fill:rgb(62.745098%,38.039216%,41.568627%);fill-opacity:1;" d="M 343.601562 50.265625 L 336.921875 75.753906 L 311.460938 70.738281 C 311.460938 70.738281 329.226562 52.402344 326.722656 44.042969 Z M 343.601562 50.265625 "/>
<path style=" stroke:none;fill-rule:nonzero;fill:rgb(24.705882%,23.921569%,33.72549%);fill-opacity:1;" d="M 324.144531 54.113281 L 339.785156 61.417969 C 339.785156 61.417969 347.832031 66.34375 347.980469 69.621094 C 348.125 72.902344 347.085938 88.558594 347.085938 88.558594 C 347.085938 88.558594 353.339844 94.820312 349.167969 107.347656 L 351.253906 128.226562 L 304.332031 153.277344 L 308.503906 109.4375 L 306.417969 68.726562 Z M 324.144531 54.113281 "/>
<path style=" stroke:none;fill-rule:nonzero;fill:rgb(62.745098%,38.039216%,41.568627%);fill-opacity:1;" d="M 310.105469 172.902344 C 311.933594 177.109375 315.585938 179.574219 318.261719 178.40625 C 320.933594 177.238281 321.617188 172.882812 319.785156 168.675781 C 319.074219 166.984375 317.972656 165.488281 316.566406 164.3125 L 308.582031 146.589844 L 300.355469 150.515625 L 309.097656 167.574219 C 309.003906 169.40625 309.347656 171.234375 310.105469 172.902344 Z M 310.105469 172.902344 "/>
<path style=" stroke:none;fill-rule:nonzero;fill:rgb(24.705882%,23.921569%,33.72549%);fill-opacity:1;" d="M 318.410156 71.335938 C 318.410156 71.335938 306.9375 64.027344 302.765625 72.378906 C 298.597656 80.730469 289.210938 123.527344 289.210938 123.527344 L 302.765625 164.238281 L 315.28125 159.019531 L 304.332031 115.207031 Z M 318.410156 71.335938 "/>
<path style=" stroke:none;fill-rule:nonzero;fill:rgb(62.745098%,38.039216%,41.568627%);fill-opacity:1;" d="M 377.195312 166.332031 C 380.445312 169.566406 384.75 170.511719 386.804688 168.441406 C 388.859375 166.367188 387.894531 162.066406 384.640625 158.832031 C 383.359375 157.523438 381.78125 156.539062 380.042969 155.960938 L 366.097656 142.429688 L 359.894531 149.117188 L 374.300781 161.746094 C 374.886719 163.484375 375.878906 165.058594 377.195312 166.332031 Z M 377.195312 166.332031 "/>
<path style=" stroke:none;fill-rule:nonzero;fill:rgb(24.705882%,23.921569%,33.72549%);fill-opacity:1;" d="M 347.539062 68.84375 C 347.539062 68.84375 327.539062 68.027344 326.734375 77.328125 C 325.933594 86.628906 339.601562 128.132812 339.601562 128.132812 L 367.1875 160.980469 L 376.898438 151.515625 L 350.597656 114.820312 Z M 347.539062 68.84375 "/>
<path style=" stroke:none;fill-rule:nonzero;fill:rgb(100%,100%,100%);fill-opacity:1;" d="M 327.859375 129.363281 L 311.15625 78.605469 C 297.652344 66.695312 283.003906 95.375 243.675781 79.117188 L 256.046875 136.53125 C 285.777344 120.441406 311.371094 114.140625 327.859375 129.363281 Z M 327.859375 129.363281 "/>
<path style=" stroke:none;fill-rule:nonzero;fill:rgb(24.705882%,23.921569%,33.72549%);fill-opacity:1;" d="M 256.046875 137.28125 C 255.9375 137.28125 255.832031 137.257812 255.730469 137.214844 C 255.519531 137.113281 255.363281 136.921875 255.3125 136.691406 L 242.945312 79.277344 C 242.886719 79.003906 242.980469 78.722656 243.195312 78.542969 C 243.410156 78.363281 243.703125 78.320312 243.960938 78.425781 C 266.300781 87.660156 280.722656 82.164062 291.25 78.148438 C 299.253906 75.09375 305.574219 72.683594 311.648438 78.046875 C 311.75 78.132812 311.824219 78.246094 311.867188 78.371094 L 328.570312 129.128906 C 328.675781 129.453125 328.550781 129.808594 328.265625 129.996094 C 327.976562 130.179688 327.601562 130.148438 327.351562 129.914062 C 312.855469 116.53125 290.3125 118.839844 256.402344 137.191406 C 256.289062 137.253906 256.167969 137.28125 256.046875 137.28125 Z M 244.707031 80.339844 L 256.566406 135.402344 C 289.105469 117.957031 311.386719 115.269531 326.3125 127.054688 L 310.507812 79.039062 C 305.15625 74.449219 299.535156 76.59375 291.78125 79.546875 C 281.226562 83.574219 266.847656 89.058594 244.707031 80.339844 Z M 244.707031 80.339844 "/>
<path style=" stroke:none;fill-rule:nonzero;fill:rgb(62.745098%,38.039216%,41.568627%);fill-opacity:1;" d="M 223.535156 84.484375 L 217.910156 93.703125 C 217.910156 93.703125 209.957031 124.988281 217.910156 125.113281 C 225.859375 125.242188 241.914062 109.171875 241.914062 109.171875 L 239.820312 100.785156 L 234.003906 103.117188 L 235.167969 84.484375 Z M 223.535156 84.484375 "/>
<path style=" stroke:none;fill-rule:nonzero;fill:rgb(90.196078%,90.196078%,90.196078%);fill-opacity:1;" d="M 240.984375 61.046875 C 240.984375 61.046875 222.371094 57.761719 220.625 69.957031 C 218.878906 82.152344 217.910156 93.703125 217.910156 93.703125 L 238.074219 95.375 Z M 240.984375 61.046875 "/>
<path style=" stroke:none;fill-rule:nonzero;fill:rgb(62.745098%,38.039216%,41.568627%);fill-opacity:1;" d="M 254.054688 95.945312 C 252.371094 93.582031 247.175781 94.394531 242.453125 97.765625 C 237.726562 101.132812 235.261719 105.78125 236.945312 108.144531 C 238.625 110.511719 243.820312 109.699219 248.546875 106.328125 C 253.269531 102.960938 255.738281 98.3125 254.054688 95.945312 Z M 254.054688 95.945312 "/>
<path style=" stroke:none;fill-rule:nonzero;fill:rgb(24.705882%,23.921569%,33.72549%);fill-opacity:1;" d="M 444.738281 309.882812 C 444.738281 313.375 441.910156 316.207031 438.421875 316.207031 C 434.933594 316.207031 432.101562 313.375 432.101562 309.882812 C 432.101562 306.390625 434.933594 303.5625 438.421875 303.5625 C 441.910156 303.5625 444.738281 306.390625 444.738281 309.882812 Z M 444.738281 309.882812 "/>
<path style=" stroke:none;fill-rule:nonzero;fill:rgb(24.705882%,23.921569%,33.72549%);fill-opacity:1;" d="M 453.160156 319.699219 C 453.160156 323.191406 450.332031 326.023438 446.84375 326.023438 C 443.355469 326.023438 440.527344 323.191406 440.527344 319.699219 C 440.527344 316.207031 443.355469 313.375 446.84375 313.375 C 450.332031 313.375 453.160156 316.207031 453.160156 319.699219 Z M 453.160156 319.699219 "/>
<path style=" stroke:none;fill-rule:nonzero;fill:rgb(24.705882%,23.921569%,33.72549%);fill-opacity:1;" d="M 516.332031 319.699219 C 516.332031 323.191406 513.503906 326.023438 510.011719 326.023438 C 506.523438 326.023438 503.695312 323.191406 503.695312 319.699219 C 503.695312 316.207031 506.523438 313.375 510.011719 313.375 C 513.503906 313.375 516.332031 316.207031 516.332031 319.699219 Z M 516.332031 319.699219 "/>
<path style=" stroke:none;fill-rule:nonzero;fill:rgb(24.705882%,23.921569%,33.72549%);fill-opacity:1;" d="M 456.097656 225.042969 L 456.097656 156.359375 C 456.097656 148.667969 462.519531 146.769531 470.203125 146.769531 C 473.964844 146.769531 475.796875 146.332031 478.4375 149.015625 C 481.074219 151.703125 484.015625 152.820312 483.957031 156.585938 L 482.851562 223.984375 Z M 470.949219 151.265625 C 464.09375 151.265625 457.59375 149.496094 457.59375 156.359375 L 457.59375 223.480469 L 481.375 222.542969 L 482.457031 156.5625 C 482.511719 153.199219 477.050781 153.664062 474.691406 151.265625 C 472.335938 148.867188 474.308594 151.265625 470.949219 151.265625 Z M 470.949219 151.265625 "/>
<path style=" stroke:none;fill-rule:nonzero;fill:rgb(90.196078%,90.196078%,90.196078%);fill-opacity:1;" d="M 437.292969 224.214844 L 436.332031 299.253906 C 436.320312 300.222656 436.550781 301.175781 437.003906 302.027344 L 444.085938 315.417969 C 445.125 317.390625 447.207031 318.582031 449.433594 318.484375 L 511.617188 315.738281 C 514.800781 315.597656 517.265625 312.898438 517.121094 309.710938 L 513.222656 224.027344 C 513.082031 220.945312 510.546875 218.519531 507.464844 218.519531 L 443.058594 218.519531 C 439.902344 218.519531 437.335938 221.058594 437.292969 224.214844 Z M 437.292969 224.214844 "/>
<path style=" stroke:none;fill-rule:nonzero;fill:rgb(24.705882%,23.921569%,33.72549%);fill-opacity:1;" d="M 461.804688 258.078125 L 460.308594 258.003906 L 460.863281 246.898438 C 461.164062 240.917969 466.082031 236.121094 472.0625 235.980469 L 498.546875 235.367188 C 503.894531 235.273438 508.320312 239.332031 508.617188 244.683594 L 509.179688 254.839844 L 507.6875 254.921875 L 507.121094 244.765625 C 506.871094 240.230469 503.089844 236.753906 498.582031 236.863281 L 472.097656 237.480469 C 466.898438 237.601562 462.617188 241.773438 462.359375 246.972656 Z M 461.804688 258.078125 "/>
<path style=" stroke:none;fill-rule:nonzero;fill:rgb(24.705882%,23.921569%,33.72549%);fill-opacity:1;" d="M 460.75 311.871094 L 459.257812 311.71875 L 462.488281 280.195312 C 463.085938 274.363281 467.945312 269.773438 473.792969 269.511719 L 499.621094 268.351562 C 502.875 268.203125 505.964844 269.355469 508.332031 271.597656 C 510.695312 273.835938 512.019531 276.863281 512.050781 280.125 L 512.339844 307.570312 L 510.84375 307.585938 L 510.554688 280.140625 C 510.523438 277.289062 509.371094 274.644531 507.300781 272.6875 C 505.234375 270.726562 502.523438 269.71875 499.6875 269.847656 L 473.859375 271.007812 C 468.75 271.234375 464.5 275.25 463.976562 280.347656 Z M 460.75 311.871094 "/>
<path style=" stroke:none;fill-rule:nonzero;fill:rgb(24.705882%,23.921569%,33.72549%);fill-opacity:1;" d="M 449.171875 309.695312 L 447.675781 309.675781 L 448.621094 237.640625 C 448.683594 232.714844 452.589844 228.742188 457.507812 228.597656 L 508.410156 227.097656 L 508.457031 228.597656 L 457.550781 230.097656 C 453.4375 230.21875 450.171875 233.542969 450.117188 237.660156 Z M 449.171875 309.695312 "/>
<path style=" stroke:none;fill-rule:nonzero;fill:rgb(24.705882%,23.921569%,33.72549%);fill-opacity:1;" d="M 449.304688 299.429688 L 448.265625 299.429688 L 448.265625 233.824219 C 448.265625 231.75 446.582031 230.054688 444.5 230.054688 L 438.683594 230.054688 L 438.683594 228.558594 L 444.5 228.558594 C 447.246094 228.558594 449.507812 230.679688 449.738281 233.359375 C 449.753906 233.511719 449.761719 233.667969 449.761719 233.824219 L 449.761719 264.890625 Z M 449.304688 299.429688 "/>
<path style=" stroke:none;fill-rule:nonzero;fill:rgb(62.745098%,38.039216%,41.568627%);fill-opacity:1;" d="M 354.472656 36.636719 C 354.472656 46.242188 346.691406 54.027344 337.097656 54.027344 C 327.503906 54.027344 319.726562 46.242188 319.726562 36.636719 C 319.726562 27.03125 327.503906 19.246094 337.097656 19.246094 C 346.691406 19.246094 354.472656 27.03125 354.472656 36.636719 Z M 354.472656 36.636719 "/>
<path style=" stroke:none;fill-rule:nonzero;fill:rgb(18.431373%,18.039216%,25.490196%);fill-opacity:1;" d="M 335.710938 13.257812 C 336.214844 13.550781 336.886719 13.105469 337.050781 12.546875 C 337.210938 11.984375 337.023438 11.390625 336.835938 10.839844 C 336.523438 9.914062 336.210938 8.984375 335.898438 8.058594 C 335.234375 6.089844 334.527344 4.050781 333.089844 2.546875 C 330.917969 0.285156 327.460938 -0.292969 324.355469 0.125 C 320.363281 0.660156 316.421875 2.824219 314.566406 6.402344 C 312.710938 9.984375 313.5 14.976562 316.855469 17.210938 C 312.074219 22.695312 310.40625 28.808594 310.671875 36.082031 C 310.933594 43.355469 318.851562 50.050781 324.015625 55.175781 C 325.171875 54.476562 326.21875 51.195312 325.585938 50.003906 C 324.949219 48.8125 325.859375 47.433594 325.074219 46.335938 C 324.289062 45.238281 323.632812 46.984375 324.425781 45.894531 C 324.925781 45.207031 322.96875 43.621094 323.714844 43.210938 C 327.316406 41.214844 328.515625 36.722656 330.777344 33.277344 C 333.507812 29.125 338.179688 26.316406 343.121094 25.847656 C 345.84375 25.589844 348.71875 26.058594 350.953125 27.640625 C 353.183594 29.222656 354.628906 32.050781 354.113281 34.738281 C 355.453125 33.375 356.117188 31.378906 355.867188 29.484375 C 355.617188 27.589844 354.449219 25.835938 352.800781 24.871094 C 353.804688 21.550781 352.945312 17.730469 350.617188 15.164062 C 348.289062 12.59375 338.847656 13.03125 335.449219 13.707031 Z M 335.710938 13.257812 "/>
<path style=" stroke:none;fill-rule:nonzero;fill:rgb(18.431373%,18.039216%,25.490196%);fill-opacity:1;" d="M 335.183594 25.949219 C 330.683594 26.4375 327.433594 30.339844 324.691406 33.941406 C 323.109375 36.019531 321.453125 38.3125 321.492188 40.925781 C 321.53125 43.566406 323.292969 45.832031 324.136719 48.332031 C 325.515625 52.425781 324.171875 57.289062 320.894531 60.09375 C 324.132812 60.707031 327.636719 58.277344 328.195312 55.023438 C 328.847656 51.234375 325.980469 47.578125 326.320312 43.75 C 326.617188 40.375 329.273438 37.78125 331.53125 35.257812 C 333.789062 32.738281 335.90625 29.390625 334.871094 26.167969 Z M 335.183594 25.949219 "/>
</g>
</svg>
