<?xml version="1.0" encoding="UTF-8"?>
<svg xmlns="http://www.w3.org/2000/svg" xmlns:xlink="http://www.w3.org/1999/xlink" width="366px" height="180px" viewBox="0 0 518 566" version="1.1">
<defs>
<filter id="alpha" filterUnits="objectBoundingBox" x="0%" y="0%" width="100%" height="100%">
  <feColorMatrix type="matrix" in="SourceGraphic" values="0 0 0 0 1 0 0 0 0 1 0 0 0 0 1 0 0 0 1 0"/>
</filter>
<mask id="mask0">
  <g filter="url(#alpha)">
<rect x="0" y="0" width="518" height="566" style="fill:rgb(0%,0%,0%);fill-opacity:0.2;stroke:none;"/>
  </g>
</mask>
<clipPath id="clip1">
  <rect x="0" y="0" width="518" height="566"/>
</clipPath>
<g id="surface5" clip-path="url(#clip1)">
<path style=" stroke:none;fill-rule:nonzero;fill:rgb(0%,0%,0%);fill-opacity:1;" d="M 295.417969 41.628906 L 87.65625 155.921875 C 63.65625 186.65625 519.6875 188.554688 515.925781 156.035156 L 314.460938 41.742188 C 308.726562 38.488281 301.207031 38.441406 295.417969 41.628906 Z M 295.417969 41.628906 "/>
</g>
<mask id="mask1">
  <g filter="url(#alpha)">
<rect x="0" y="0" width="518" height="566" style="fill:rgb(0%,0%,0%);fill-opacity:0.8;stroke:none;"/>
  </g>
</mask>
<clipPath id="clip2">
  <rect x="0" y="0" width="518" height="566"/>
</clipPath>
<g id="surface8" clip-path="url(#clip2)">
<path style=" stroke:none;fill-rule:nonzero;fill:rgb(94.901961%,94.901961%,94.901961%);fill-opacity:1;" d="M 515.0625 566.269531 L 462.214844 565.144531 L 99.824219 565.144531 L 0 562.894531 C 330.949219 484.777344 229.191406 491.503906 515.0625 566.269531 Z M 515.0625 566.269531 "/>
</g>
</defs>
<g id="surface1">
<path style=" stroke:none;fill-rule:nonzero;fill:rgb(100%,40.784314%,51.764706%);fill-opacity:1;" d="M 242.132812 136.238281 C 242.132812 195.734375 193.839844 243.964844 134.265625 243.964844 C 74.691406 243.964844 26.398438 195.734375 26.398438 136.238281 C 26.398438 76.742188 74.691406 28.507812 134.265625 28.507812 C 193.839844 28.507812 242.132812 76.742188 242.132812 136.238281 Z M 242.132812 136.238281 "/>
<path style=" stroke:none;fill-rule:nonzero;fill:rgb(42.352941%,38.823529%,100%);fill-opacity:1;" d="M 295.417969 41.628906 L 87.65625 155.921875 C 63.65625 186.65625 519.6875 188.554688 515.925781 156.035156 L 314.460938 41.742188 C 308.726562 38.488281 301.207031 38.441406 295.417969 41.628906 Z M 295.417969 41.628906 "/>
<use xlink:href="#surface5" mask="url(#mask0)"/>
<use xlink:href="#surface8" mask="url(#mask1)"/>
<path style=" stroke:none;fill-rule:nonzero;fill:rgb(90.196078%,90.196078%,90.196078%);fill-opacity:1;" d="M 466.410156 562.894531 L 462.214844 565.144531 L 99.824219 565.144531 C 347.546875 514.074219 199.027344 518.570312 466.410156 562.894531 Z M 466.410156 562.894531 "/>
<path style=" stroke:none;fill-rule:nonzero;fill:rgb(24.705882%,23.921569%,33.72549%);fill-opacity:1;" d="M 291.308594 32.085938 L 306.90625 32.085938 L 301.644531 2.476562 C 301.320312 0.648438 300.074219 0 299.105469 0 C 298.136719 0 296.890625 0.648438 296.566406 2.476562 Z M 291.308594 32.085938 "/>
<path style=" stroke:none;fill-rule:nonzero;fill:rgb(24.705882%,23.921569%,33.72549%);fill-opacity:1;" d="M 289.828125 129.777344 L 307.023438 129.777344 L 307.023438 548.675781 L 289.828125 548.675781 Z M 289.828125 129.777344 "/>
<path style=" stroke:none;fill-rule:nonzero;fill:rgb(24.705882%,23.921569%,33.72549%);fill-opacity:1;" d="M 298.476562 195.171875 C 291.140625 195.171875 284.242188 192.332031 279.027344 187.164062 L 235.625 144.128906 L 239.171875 140.5625 L 282.574219 183.597656 C 286.890625 187.875 292.585938 190.210938 298.695312 190.144531 C 304.777344 190.085938 310.457031 187.652344 314.691406 183.296875 L 356.164062 140.59375 L 359.777344 144.09375 L 318.304688 186.796875 C 313.125 192.125 306.179688 195.101562 298.742188 195.171875 C 298.65625 195.171875 298.5625 195.171875 298.476562 195.171875 Z M 298.476562 195.171875 "/>
<path style=" stroke:none;fill-rule:nonzero;fill:rgb(42.352941%,38.823529%,100%);fill-opacity:1;" d="M 304.488281 162.316406 C 283.132812 162.316406 261.609375 162.242188 240.71875 162.097656 C 196.453125 161.78125 158.664062 161.160156 131.429688 160.300781 C 85.015625 158.832031 84.519531 157.164062 84.308594 156.453125 C 84.261719 156.289062 84.242188 155.96875 84.679688 155.683594 L 291.871094 19.601562 C 296.855469 16.324219 303.265625 16.367188 308.203125 19.71875 L 517.675781 155.792969 C 518.113281 156.089844 518.089844 156.410156 518.039062 156.574219 C 517.777344 157.410156 516.984375 159.957031 425.011719 161.449219 C 390.015625 162.019531 347.605469 162.316406 304.488281 162.316406 Z M 304.488281 162.316406 "/>
<path style=" stroke:none;fill-rule:nonzero;fill:rgb(24.705882%,23.921569%,33.72549%);fill-opacity:1;" d="M 344.378906 364.226562 L 318.121094 364.257812 C 315.179688 370.78125 319.199219 378.414062 324.335938 383.402344 C 329.472656 388.394531 335.914062 392.21875 339.707031 398.292969 C 348.125 411.765625 340.191406 429.480469 342.972656 445.117188 C 346.714844 466.171875 368.816406 479.421875 375.546875 499.71875 C 379.355469 511.203125 377.625 524.382812 370.980469 534.5 C 369.753906 536.367188 368.339844 538.210938 367.910156 540.402344 C 367.328125 543.382812 368.898438 546.652344 371.589844 548.066406 C 374.28125 549.480469 377.871094 548.914062 379.996094 546.746094 C 377.917969 549.105469 378.601562 553.085938 380.933594 555.191406 C 383.265625 557.296875 386.738281 557.746094 389.816406 557.097656 C 399.785156 554.996094 404.804688 543.492188 405.207031 533.324219 C 405.613281 523.152344 403.054688 512.847656 405.050781 502.867188 C 406.320312 517.191406 422.550781 526.289062 423.820312 540.613281 C 424.058594 543.265625 409.367188 551.25 410.734375 553.539062 C 414.191406 559.328125 422.425781 559.347656 429.136719 558.652344 C 440.6875 557.460938 453.515625 555.601562 460.761719 546.535156 C 465.640625 540.429688 466.90625 532.210938 467.066406 524.398438 C 467.488281 504.003906 461.402344 483.523438 449.914062 466.65625 C 434.625 444.207031 410.320312 428.296875 398.316406 403.9375 C 394.234375 395.65625 391.738281 386.679688 387.769531 378.347656 C 383.800781 370.015625 377.964844 362.042969 369.515625 358.300781 C 361.070312 354.5625 349.699219 356.40625 344.824219 364.246094 "/>
<path style=" stroke:none;fill-rule:nonzero;fill:rgb(18.431373%,18.039216%,25.490196%);fill-opacity:1;" d="M 425.804688 543.449219 C 425.28125 543.449219 424.769531 543.335938 424.285156 543.113281 C 423.910156 542.9375 423.75 542.492188 423.921875 542.117188 C 424.097656 541.742188 424.542969 541.578125 424.917969 541.753906 C 425.746094 542.140625 426.542969 541.886719 427.066406 541.605469 C 428.136719 541.035156 428.976562 539.855469 429.15625 538.679688 C 429.5 536.410156 428.359375 534.085938 427.351562 532.035156 C 424.417969 526.0625 421.515625 519.664062 421.082031 512.902344 C 420.589844 505.28125 423.742188 498.179688 429.109375 494.8125 C 433.097656 492.3125 438.375 491.65625 443.960938 492.96875 C 448.75 494.09375 453.160156 496.453125 457.632812 498.976562 C 457.992188 499.179688 458.121094 499.636719 457.917969 499.996094 C 457.710938 500.355469 457.253906 500.484375 456.894531 500.28125 C 452.355469 497.71875 448.21875 495.507812 443.617188 494.425781 C 438.421875 493.207031 433.554688 493.796875 429.90625 496.082031 C 424.996094 499.160156 422.121094 505.726562 422.578125 512.808594 C 422.996094 519.296875 425.832031 525.539062 428.699219 531.378906 C 429.746094 533.511719 431.050781 536.167969 430.636719 538.90625 C 430.386719 540.550781 429.265625 542.128906 427.773438 542.925781 C 427.125 543.273438 426.457031 543.449219 425.804688 543.449219 Z M 425.804688 543.449219 "/>
<path style=" stroke:none;fill-rule:nonzero;fill:rgb(18.431373%,18.039216%,25.490196%);fill-opacity:1;" d="M 382.117188 377.257812 C 385.96875 384.894531 383.9375 395.035156 377.433594 400.601562 C 376.039062 401.796875 374.46875 402.800781 373.21875 404.148438 C 371.972656 405.496094 371.054688 407.324219 371.371094 409.132812 C 367.109375 404.914062 362.769531 400.578125 360.191406 395.167969 C 357.617188 389.753906 357.113281 382.960938 360.464844 377.992188 C 362.066406 375.625 364.398438 373.847656 366.210938 371.636719 C 368.027344 369.425781 369.335938 366.417969 368.355469 363.730469 "/>
<path style=" stroke:none;fill-rule:nonzero;fill:rgb(24.705882%,23.921569%,33.72549%);fill-opacity:1;" d="M 458.707031 523.933594 C 456.671875 530.152344 460.023438 537.308594 465.527344 540.863281 C 471.027344 544.417969 478.136719 544.785156 484.488281 543.175781 C 496.773438 540.070312 506.859375 529.566406 509.457031 517.179688 C 510.539062 512.03125 510.464844 506.507812 512.910156 501.847656 C 514.449219 498.917969 516.988281 496.273438 517.0625 492.964844 C 517.121094 490.277344 515.375 487.726562 512.992188 486.476562 C 510.609375 485.226562 507.707031 485.183594 505.140625 485.996094 C 499.027344 487.9375 495.273438 494.121094 493.328125 500.226562 C 491.382812 506.332031 490.660156 512.859375 487.832031 518.613281 C 485.003906 524.363281 479.160156 529.386719 472.804688 528.507812 C 467.308594 527.75 462.65625 522.800781 457.148438 523.476562 "/>
<path style=" stroke:none;fill-rule:nonzero;fill:rgb(100%,71.372549%,71.372549%);fill-opacity:1;" d="M 151.601562 446.320312 C 144.167969 447.457031 138.730469 452.210938 139.453125 456.933594 C 140.179688 461.660156 146.796875 464.566406 154.230469 463.425781 C 157.207031 463.011719 160.042969 461.890625 162.496094 460.160156 L 216.273438 452.066406 L 218.300781 433.515625 L 160.46875 446.960938 C 157.605469 446.042969 154.566406 445.824219 151.601562 446.320312 Z M 151.601562 446.320312 "/>
<path style=" stroke:none;fill-rule:nonzero;fill:rgb(90.196078%,90.196078%,90.196078%);fill-opacity:1;" d="M 287.070312 407.632812 L 274.878906 433.46875 L 213.601562 454.070312 L 216.585938 433.074219 L 273.136719 406.386719 Z M 287.070312 407.632812 "/>
<path style=" stroke:none;fill-rule:nonzero;fill:rgb(100%,71.372549%,71.372549%);fill-opacity:1;" d="M 174.046875 505.722656 L 163.101562 533.371094 L 148.941406 523.726562 L 157.308594 494.792969 Z M 174.046875 505.722656 "/>
<path style=" stroke:none;fill-rule:nonzero;fill:rgb(100%,71.372549%,71.372549%);fill-opacity:1;" d="M 128.339844 495.4375 L 99.371094 523.082031 L 110.957031 535.300781 L 140.570312 512.152344 Z M 128.339844 495.4375 "/>
<path style=" stroke:none;fill-rule:nonzero;fill:rgb(100%,71.372549%,71.372549%);fill-opacity:1;" d="M 292.5 405.425781 L 292.179688 403.175781 L 284.773438 388.710938 L 260.3125 395.140625 L 264.816406 415.070312 Z M 292.5 405.425781 "/>
<path style=" stroke:none;fill-rule:nonzero;fill:rgb(18.431373%,18.039216%,25.490196%);fill-opacity:1;" d="M 282.199219 501.867188 L 282.953125 511.523438 C 282.953125 511.523438 286.0625 552.015625 260.957031 555.230469 C 235.847656 558.445312 224.90625 561.660156 210.097656 536.585938 L 186.921875 495.4375 L 173.386719 511.523438 L 155.378906 497.367188 C 155.378906 497.367188 168.253906 447.214844 178.554688 445.289062 C 179.839844 445.046875 181.128906 444.925781 182.394531 444.898438 C 190.921875 444.722656 198.960938 448.886719 204.0625 455.714844 L 233.273438 494.792969 L 243.894531 489.972656 Z M 282.199219 501.867188 "/>
<path style=" stroke:none;fill-rule:nonzero;fill:rgb(100%,71.372549%,71.372549%);fill-opacity:1;" d="M 143.148438 532.085938 L 149.652344 522.496094 L 164.582031 529.578125 C 164.582031 529.578125 169.542969 546.871094 163.746094 548.800781 C 157.953125 550.730469 141.859375 548.15625 141.859375 548.15625 C 141.859375 548.15625 112.246094 554.585938 111.601562 548.800781 C 110.957031 543.015625 125.121094 541.726562 125.121094 541.726562 Z M 143.148438 532.085938 "/>
<path style=" stroke:none;fill-rule:nonzero;fill:rgb(18.431373%,18.039216%,25.490196%);fill-opacity:1;" d="M 206.234375 524.367188 L 161.492188 496.214844 L 138.640625 516.652344 L 123.191406 498.652344 C 123.191406 498.652344 151.515625 456.859375 159.882812 454.933594 C 168.253906 453.003906 181.773438 451.71875 181.773438 451.71875 L 222.972656 489.652344 Z M 206.234375 524.367188 "/>
<path style=" stroke:none;fill-rule:nonzero;fill:rgb(100%,71.372549%,71.372549%);fill-opacity:1;" d="M 102.492188 520.617188 L 111.953125 534.09375 L 111.582031 538.253906 C 111.582031 538.253906 107.738281 554.960938 98.726562 549.308594 C 89.714844 543.65625 89.070312 542.371094 89.070312 542.371094 C 89.070312 542.371094 63.320312 548.15625 60.746094 537.871094 C 58.171875 527.582031 65.25 529.511719 65.25 529.511719 L 71.683594 533.371094 L 96.746094 525.003906 Z M 102.492188 520.617188 "/>
<path style=" stroke:none;fill-rule:nonzero;fill:rgb(100%,71.372549%,71.372549%);fill-opacity:1;" d="M 288.636719 381.636719 C 288.636719 393 279.414062 402.210938 268.035156 402.210938 C 256.660156 402.210938 247.4375 393 247.4375 381.636719 C 247.4375 370.273438 256.660156 361.0625 268.035156 361.0625 C 279.414062 361.0625 288.636719 370.273438 288.636719 381.636719 Z M 288.636719 381.636719 "/>
<path style=" stroke:none;fill-rule:nonzero;fill:rgb(90.196078%,90.196078%,90.196078%);fill-opacity:1;" d="M 263.207031 410.890625 L 292.820312 401.890625 C 292.820312 401.890625 304.410156 428.894531 302.476562 441.109375 C 300.546875 453.324219 282.953125 511.523438 282.953125 511.523438 L 243.894531 489.972656 C 243.894531 489.972656 243.25 477.113281 241.320312 471.328125 C 239.390625 465.539062 233.273438 447.859375 246.792969 433.070312 C 260.3125 418.285156 263.207031 410.890625 263.207031 410.890625 Z M 263.207031 410.890625 "/>
<path style=" stroke:none;fill-rule:nonzero;fill:rgb(100%,71.372549%,71.372549%);fill-opacity:1;" d="M 198.03125 545.894531 C 193.210938 551.660156 192.285156 558.820312 195.960938 561.882812 C 199.636719 564.945312 206.519531 562.753906 211.339844 556.984375 C 213.296875 554.707031 214.679688 551.992188 215.371094 549.070312 L 260.992188 497.980469 L 246.855469 490.351562 L 205.109375 540.515625 C 202.351562 541.71875 199.925781 543.5625 198.03125 545.894531 Z M 198.03125 545.894531 "/>
<path style=" stroke:none;fill-rule:nonzero;fill:rgb(90.196078%,90.196078%,90.196078%);fill-opacity:1;" d="M 285.921875 423.863281 L 292.921875 451.550781 L 258.664062 506.320312 L 261.757812 505.613281 L 243.035156 491.875 L 247.628906 488.203125 L 274.363281 431.730469 Z M 285.921875 423.863281 "/>
<path style=" stroke:none;fill-rule:nonzero;fill:rgb(18.431373%,18.039216%,25.490196%);fill-opacity:1;" d="M 249.046875 378.101562 C 254.328125 378.089844 254.628906 378.125 255.484375 378.101562 C 262.035156 377.929688 263.75 375.355469 267.070312 375.527344 C 273 375.84375 265.175781 405.527344 261.921875 419.25 C 258.730469 432.707031 269.515625 444.765625 270.289062 445.609375 C 281.238281 457.5 300.464844 459.675781 303.765625 454.609375 C 306.4375 450.511719 296.972656 444.28125 299.257812 435.324219 C 301.496094 426.566406 311.824219 427.5 314.710938 419.25 C 317.734375 410.609375 307.574219 406.253906 301.191406 385.171875 C 297.523438 373.066406 298.171875 370.8125 294.753906 363.3125 C 285.609375 343.269531 240.796875 351.804688 245.828125 370.386719 C 246.800781 373.980469 244.210938 378.113281 249.046875 378.101562 Z M 249.046875 378.101562 "/>
</g>
</svg>
