<?xml version="1.0" encoding="UTF-8"?>
<svg xmlns="http://www.w3.org/2000/svg" xmlns:xlink="http://www.w3.org/1999/xlink" width="366px" height="180px" viewBox="0 0 281 545" version="1.1">
<g id="surface1">
<path style=" stroke:none;fill-rule:nonzero;fill:rgb(24.705882%,23.921569%,33.72549%);fill-opacity:1;" d="M 2.089844 362.554688 C 1.675781 362.554688 1.339844 362.222656 1.339844 361.808594 L 1.339844 150.847656 C 1.339844 97.761719 44.570312 54.574219 97.707031 54.574219 L 260.417969 54.574219 C 260.832031 54.574219 261.164062 54.90625 261.164062 55.320312 C 261.164062 55.734375 260.832031 76.28125 260.417969 76.28125 L 97.707031 56.070312 C 45.398438 56.070312 2.839844 98.585938 2.839844 150.847656 L 2.839844 361.808594 C 2.839844 362.222656 2.503906 362.554688 2.089844 362.554688 Z M 2.089844 362.554688 "/>
<path style=" stroke:none;fill-rule:nonzero;fill:rgb(24.705882%,23.921569%,33.72549%);fill-opacity:1;" d="M 260.984375 0 C 261.398438 0 261.734375 0.335938 261.734375 0.75 L 261.734375 211.707031 C 261.734375 264.792969 218.503906 307.984375 165.367188 307.984375 L 2.660156 307.984375 C 2.246094 307.984375 1.910156 307.648438 1.910156 307.234375 C 1.910156 306.820312 2.246094 306.484375 2.660156 306.484375 L 165.367188 306.484375 C 217.679688 306.484375 260.234375 263.96875 260.234375 211.707031 L 260.234375 0.75 C 260.234375 0.335938 260.570312 0 260.984375 0 Z M 260.984375 0 "/>
<path style=" stroke:none;fill-rule:nonzero;fill:rgb(100%,71.372549%,71.372549%);fill-opacity:1;" d="M 185.519531 200.109375 C 185.519531 196.875 186.804688 193.707031 189.226562 191.351562 L 223.359375 158.132812 C 224.25 154.75 225.953125 151.582031 228.285156 148.972656 C 231.105469 145.730469 234.566406 143.382812 238.027344 142.355469 C 241.550781 141.308594 244.664062 141.753906 246.796875 143.605469 C 251.144531 147.378906 249.910156 155.933594 244.050781 162.667969 C 241.792969 165.335938 238.890625 167.460938 235.664062 168.8125 L 204.679688 200.722656 L 221.734375 226.546875 C 225.039062 230.394531 225.769531 235.722656 223.617188 240.410156 C 221.539062 244.9375 217.191406 247.761719 212.273438 247.773438 C 207.011719 247.785156 202.355469 244.640625 200.40625 239.757812 L 186.394531 204.660156 C 185.804688 203.179688 185.519531 201.636719 185.519531 200.109375 Z M 185.519531 200.109375 "/>
<path style=" stroke:none;fill-rule:nonzero;fill:rgb(24.705882%,23.921569%,33.72549%);fill-opacity:1;" d="M 241.128906 142.910156 C 241.128906 157.796875 229.050781 169.863281 214.152344 169.863281 C 199.253906 169.863281 187.175781 157.796875 187.175781 142.910156 C 187.175781 128.027344 199.253906 115.960938 214.152344 115.960938 C 229.050781 115.960938 241.128906 128.027344 241.128906 142.910156 Z M 241.128906 142.910156 "/>
<path style=" stroke:none;fill-rule:nonzero;fill:rgb(100%,71.372549%,71.372549%);fill-opacity:1;" d="M 228.203125 215.035156 L 208.125 230.328125 L 233.597656 247.808594 L 246.378906 220.433594 Z M 228.203125 215.035156 "/>
<path style=" stroke:none;fill-rule:nonzero;fill:rgb(100%,71.372549%,71.372549%);fill-opacity:1;" d="M 260.410156 206.957031 C 260.410156 218.683594 250.894531 228.191406 239.15625 228.191406 C 227.414062 228.191406 217.898438 218.683594 217.898438 206.957031 C 217.898438 195.226562 227.414062 185.71875 239.15625 185.71875 C 250.894531 185.71875 260.410156 195.226562 260.410156 206.957031 Z M 260.410156 206.957031 "/>
<path style=" stroke:none;fill-rule:nonzero;fill:rgb(18.431373%,18.039216%,25.490196%);fill-opacity:1;" d="M 240.808594 230.753906 C 240.808594 230.753906 245.597656 215.433594 242.503906 212.539062 C 239.40625 209.644531 239.503906 212.636719 239.503906 212.636719 L 243.429688 197.875 C 243.429688 197.875 241.5625 189.300781 229.167969 188.121094 C 229.167969 188.121094 233.570312 179.777344 239.96875 181.152344 C 246.367188 182.53125 246.773438 184.105469 249.488281 183.574219 C 252.207031 183.042969 257.839844 187.972656 257.839844 187.972656 C 257.839844 187.972656 260.726562 185.617188 260.398438 188.519531 C 260.070312 191.421875 263.136719 196.167969 263.136719 196.167969 C 263.136719 196.167969 264.882812 195.082031 264.402344 198.125 C 263.921875 201.171875 266.179688 202.769531 266.179688 202.769531 C 266.179688 202.769531 263.191406 204.699219 264.148438 206.21875 C 265.109375 207.742188 268.941406 208.9375 267.492188 210.484375 C 266.042969 212.03125 267.132812 215.609375 262.226562 219.382812 C 257.320312 223.160156 240.808594 230.753906 240.808594 230.753906 Z M 240.808594 230.753906 "/>
<path style=" stroke:none;fill-rule:nonzero;fill:rgb(100%,71.372549%,71.372549%);fill-opacity:1;" d="M 253.402344 507.5625 L 253.222656 507.378906 L 203.042969 455.292969 C 198.1875 450.253906 195.835938 443.371094 196.59375 436.414062 L 199.210938 412.351562 L 224.625 416.964844 L 225.59375 432.136719 L 268.277344 501.304688 Z M 253.402344 507.5625 "/>
<path style=" stroke:none;fill-rule:nonzero;fill:rgb(18.431373%,18.039216%,25.490196%);fill-opacity:1;" d="M 259.496094 545.128906 C 258.6875 545.128906 257.890625 544.921875 257.160156 544.515625 C 255.394531 543.535156 254.417969 541.535156 254.730469 539.542969 L 256.476562 528.507812 L 247.46875 509.011719 L 249.84375 501.890625 L 263.445312 501.136719 L 267.976562 496.609375 L 273.054688 497.492188 C 276.089844 498.019531 278.617188 499.902344 279.988281 502.660156 C 281.359375 505.417969 281.335938 508.570312 279.921875 511.304688 L 263.800781 542.511719 C 263.195312 543.683594 262.167969 544.539062 260.90625 544.917969 C 260.441406 545.058594 259.96875 545.128906 259.496094 545.128906 Z M 259.496094 545.128906 "/>
<path style=" stroke:none;fill-rule:nonzero;fill:rgb(18.431373%,18.039216%,25.490196%);fill-opacity:1;" d="M 234.007812 361.882812 L 224.269531 423.269531 L 177.058594 445.730469 L 169.566406 385.839844 Z M 234.007812 361.882812 "/>
<path style=" stroke:none;fill-rule:nonzero;fill:rgb(100%,71.372549%,71.372549%);fill-opacity:1;" d="M 206.941406 489.59375 L 206.761719 489.410156 L 156.585938 437.328125 C 151.730469 432.285156 149.378906 425.40625 150.136719 418.449219 L 152.753906 394.382812 L 178.164062 399 L 179.136719 414.171875 L 221.820312 483.335938 Z M 206.941406 489.59375 "/>
<path style=" stroke:none;fill-rule:nonzero;fill:rgb(18.431373%,18.039216%,25.490196%);fill-opacity:1;" d="M 213.039062 527.160156 C 212.230469 527.160156 211.429688 526.953125 210.699219 526.550781 C 208.933594 525.570312 207.957031 523.570312 208.273438 521.574219 L 210.019531 510.539062 L 201.011719 491.042969 L 203.386719 483.925781 L 216.984375 483.171875 L 221.519531 478.640625 L 226.59375 479.523438 C 229.632812 480.050781 232.160156 481.9375 233.53125 484.695312 C 234.902344 487.453125 234.878906 490.601562 233.464844 493.339844 L 217.34375 524.542969 C 216.738281 525.714844 215.707031 526.570312 214.445312 526.949219 C 213.980469 527.089844 213.507812 527.160156 213.039062 527.160156 Z M 213.039062 527.160156 "/>
<path style=" stroke:none;fill-rule:nonzero;fill:rgb(18.431373%,18.039216%,25.490196%);fill-opacity:1;" d="M 180.3125 341.320312 L 175.039062 355.648438 L 151.359375 394.289062 C 150.660156 395.421875 150.550781 396.78125 151.050781 398.015625 C 151.550781 399.246094 152.578125 400.144531 153.867188 400.472656 L 206.128906 413.863281 L 230.324219 379.917969 C 237.222656 370.234375 240.792969 358.382812 240.390625 346.507812 Z M 180.3125 341.320312 "/>
<path style=" stroke:none;fill-rule:nonzero;fill:rgb(42.352941%,38.823529%,100%);fill-opacity:1;" d="M 234.25 355.894531 L 174.277344 355.894531 L 174.3125 355.488281 L 181.882812 263.800781 C 182.875 251.785156 189.097656 240.898438 198.949219 233.9375 L 199.054688 233.863281 L 240.046875 235.382812 L 231.144531 318.019531 L 242.980469 341.824219 C 244.492188 344.863281 244.324219 348.402344 242.535156 351.285156 C 240.746094 354.171875 237.648438 355.894531 234.25 355.894531 Z M 234.25 355.894531 "/>
<path style=" stroke:none;fill-rule:nonzero;fill:rgb(100%,71.372549%,71.372549%);fill-opacity:1;" d="M 217.847656 252.308594 C 214.425781 252.308594 211.089844 250.921875 208.621094 248.320312 L 182.621094 220.878906 C 179.203125 217.269531 178.304688 212.007812 180.332031 207.46875 L 199.757812 164 C 199.332031 160.527344 199.742188 156.957031 200.945312 153.667969 C 202.367188 149.617188 204.710938 146.15625 207.550781 143.921875 C 210.4375 141.648438 213.496094 140.910156 216.160156 141.84375 C 221.597656 143.746094 223.617188 152.148438 220.660156 160.574219 C 219.550781 163.886719 217.640625 166.933594 215.140625 169.382812 L 198.152344 210.472656 L 223.558594 228.171875 C 228.046875 230.527344 230.699219 235.203125 230.433594 240.355469 C 230.179688 245.332031 227.183594 249.558594 222.617188 251.386719 C 221.0625 252.007812 219.445312 252.308594 217.847656 252.308594 Z M 217.847656 252.308594 "/>
<path style=" stroke:none;fill-rule:nonzero;fill:rgb(100%,100%,100%);fill-opacity:1;" d="M 30.019531 171.199219 C 36.585938 179.050781 39.132812 189.441406 40.886719 199.527344 C 41.527344 203.210938 42.085938 206.910156 42.566406 210.621094 C 44.355469 224.46875 44.960938 238.925781 40.117188 252.023438 C 38.890625 255.339844 37.648438 259.808594 40.574219 261.800781 C 42.898438 263.382812 46.300781 261.742188 47.566406 259.230469 C 48.832031 256.722656 48.578125 253.75 48.296875 250.957031 C 45.21875 254.261719 46.179688 260.382812 50.125 262.585938 C 54.070312 264.789062 59.789062 262.402344 60.996094 258.050781 C 61.625 262.695312 66.183594 266.453125 70.867188 266.191406 C 75.550781 265.925781 79.660156 261.675781 79.757812 256.988281 C 77.332031 259.566406 78.53125 264.234375 81.546875 266.09375 C 84.558594 267.953125 88.578125 267.433594 91.667969 265.703125 C 94.757812 263.976562 97.125 261.226562 99.425781 258.53125 C 96.394531 260.402344 95.683594 265.136719 98.035156 267.8125 C 100.382812 270.484375 105.171875 270.398438 107.421875 267.640625 C 109.277344 265.367188 109.269531 262.050781 108.363281 259.261719 C 107.457031 256.46875 105.792969 254 104.539062 251.347656 C 98.792969 239.207031 102.175781 224.804688 106.921875 212.242188 C 111.667969 199.675781 117.792969 187.039062 117.28125 173.621094 "/>
<path style=" stroke:none;fill-rule:nonzero;fill:rgb(24.705882%,23.921569%,33.72549%);fill-opacity:1;" d="M 29.621094 171.59375 C 34.4375 177.410156 37.058594 184.609375 38.777344 191.871094 C 40.636719 199.742188 41.796875 207.84375 42.617188 215.882812 C 43.445312 224.015625 43.71875 232.296875 42.484375 240.410156 C 41.890625 244.320312 40.925781 248.15625 39.578125 251.875 C 38.644531 254.441406 37.523438 257.664062 38.671875 260.339844 C 40.027344 263.492188 43.824219 263.539062 46.261719 261.644531 C 49.503906 259.121094 49.226562 254.621094 48.859375 250.957031 C 48.816406 250.511719 48.253906 250.164062 47.898438 250.558594 C 45.367188 253.378906 45.296875 257.855469 47.476562 260.914062 C 49.789062 264.152344 54.074219 264.738281 57.503906 262.964844 C 59.425781 261.972656 60.917969 260.28125 61.539062 258.199219 L 60.453125 258.199219 C 61.203125 263.148438 66.074219 267.183594 71.128906 266.734375 C 76.074219 266.292969 80.136719 261.921875 80.320312 256.988281 C 80.339844 256.515625 79.683594 256.230469 79.359375 256.59375 C 77.726562 258.417969 77.550781 260.980469 78.460938 263.199219 C 79.46875 265.648438 81.644531 267.246094 84.242188 267.683594 C 90.917969 268.808594 95.90625 263.515625 99.820312 258.929688 C 100.210938 258.472656 99.710938 257.679688 99.140625 258.046875 C 96.636719 259.667969 95.535156 262.902344 96.320312 265.753906 C 97.148438 268.757812 100.078125 270.519531 103.121094 270.308594 C 106.539062 270.070312 108.96875 267.566406 109.425781 264.214844 C 109.980469 260.15625 107.902344 256.542969 106.0625 253.097656 C 97.304688 236.726562 105.027344 218.660156 111.1875 202.863281 C 114.832031 193.515625 118.1875 183.789062 117.839844 173.621094 C 117.816406 172.898438 116.691406 172.894531 116.71875 173.621094 C 117.292969 190.507812 107.816406 205.292969 103.394531 221.082031 C 101.296875 228.574219 100.125 236.566406 101.640625 244.28125 C 102.394531 248.121094 102.535156 252.15625 104.375 255.578125 C 106.109375 258.808594 109.375 262.125 107.863281 265.808594 C 106.457031 269.234375 101.753906 270.335938 98.933594 267.914062 C 96.238281 265.597656 96.816406 260.890625 99.707031 259.015625 L 99.027344 258.136719 C 95.613281 262.132812 92.875 261.613281 87.140625 261.566406 C 84.671875 261.550781 81.007812 265.625 79.796875 263.40625 C 78.769531 261.523438 78.664062 259.054688 80.15625 257.386719 L 79.195312 256.988281 C 79.035156 261.371094 75.296875 265.363281 70.867188 265.628906 C 66.351562 265.898438 62.207031 262.296875 61.539062 257.902344 C 61.449219 257.324219 60.597656 257.414062 60.453125 257.902344 C 59.261719 261.917969 53.996094 264.191406 50.308594 262.042969 C 46.710938 259.945312 45.941406 254.417969 48.695312 251.351562 L 47.734375 250.957031 C 48.074219 254.332031 48.5 258.785156 45.285156 260.976562 C 44.066406 261.808594 42.417969 262.222656 41.066406 261.449219 C 39.75 260.695312 41.414062 258.503906 41.429688 257.078125 C 41.46875 253.863281 41 251.5 41.878906 248.464844 C 42.925781 244.839844 43.601562 241.117188 44 237.367188 C 44.804688 229.714844 44.421875 221.980469 43.578125 214.351562 C 42.738281 206.773438 41.636719 199.152344 39.894531 191.726562 C 38.132812 184.207031 35.394531 176.8125 30.417969 170.800781 C 29.953125 170.242188 29.164062 171.042969 29.621094 171.59375 Z M 29.621094 171.59375 "/>
<path style=" stroke:none;fill-rule:nonzero;fill:rgb(24.705882%,23.921569%,33.72549%);fill-opacity:1;" d="M 73.652344 180.777344 C 50.765625 180.777344 26.445312 176.972656 26.445312 169.921875 C 26.445312 162.871094 50.765625 159.066406 73.652344 159.066406 C 96.539062 159.066406 120.859375 162.871094 120.859375 169.921875 C 120.859375 176.972656 96.539062 180.777344 73.652344 180.777344 Z M 73.652344 160.5625 C 46.714844 160.5625 27.941406 165.496094 27.941406 169.921875 C 27.941406 174.347656 46.714844 179.28125 73.652344 179.28125 C 100.589844 179.28125 119.363281 174.347656 119.363281 169.921875 C 119.363281 165.496094 100.589844 160.5625 73.652344 160.5625 Z M 73.652344 160.5625 "/>
<path style=" stroke:none;fill-rule:nonzero;fill:rgb(24.705882%,23.921569%,33.72549%);fill-opacity:1;" d="M 21.257812 191.292969 C 21.023438 191.292969 20.785156 191.28125 20.550781 191.253906 L 5.996094 189.578125 C 2.917969 189.222656 0.542969 186.621094 0.46875 183.53125 L 0 164.167969 C -0.0390625 162.390625 0.679688 160.671875 1.984375 159.457031 C 3.285156 158.246094 5.050781 157.644531 6.820312 157.808594 L 28.660156 159.835938 C 31.125 160.066406 33.222656 161.730469 34.003906 164.074219 L 37.515625 174.59375 C 38.324219 177.023438 37.539062 179.75 35.558594 181.378906 L 25.234375 189.871094 C 24.117188 190.792969 22.699219 191.292969 21.257812 191.292969 Z M 21.257812 191.292969 "/>
</g>
</svg>
